<svg width="50" height="50" viewBox="0 0 50 50" fill="none" xmlns="http://www.w3.org/2000/svg">
<rect width="25" height="25" fill="#348C93"/>
<path d="M20.3809 7.46095C19.4824 7.70509 18.5938 8.58399 18.3594 9.48243C18.291 9.72657 18.2617 11.9434 18.2812 15.9375C18.3105 21.5625 18.3203 22.041 18.4863 22.3438L18.6621 22.6563L16.6797 22.6367L14.6973 22.6074L14.6484 18.75C14.5898 14.4238 14.6191 14.5801 13.8574 13.9258C13.291 13.4473 12.7637 13.3496 10.8887 13.3984C9.16992 13.4375 8.7793 13.5547 8.28125 14.1406C7.98828 14.4824 8.10547 14.2285 6.28906 18.8477L4.81445 22.6074L3.07617 22.6367C1.43555 22.6563 1.30859 22.6758 1.10352 22.8711C0.712891 23.2422 0.800781 23.5254 1.68945 24.6289C4.11133 27.666 5.35156 30.7422 5.53711 34.1406L5.5957 35.2539L4.77539 34.8242C3.7793 34.2969 3.14453 34.1016 2.1582 34.0234C1.49414 33.9649 1.38672 33.9844 1.14258 34.1797C0.957031 34.3262 0.878906 34.4727 0.878906 34.707C0.878906 35.2051 1.19141 35.4102 2.01172 35.4883C3.0957 35.5762 3.65234 35.8106 5.10742 36.7871C7.07031 38.0957 7.88086 38.3496 9.79492 38.252C11.3379 38.1836 12.168 37.8711 13.6426 36.7969C15.127 35.7324 16.2402 35.3711 17.6465 35.4883C18.6816 35.5859 19.3359 35.8496 20.5957 36.709C22.0117 37.666 22.3828 37.8516 23.3105 38.0957C24.7266 38.457 26.6895 38.2813 27.8418 37.6856C28.0762 37.5684 28.7891 37.1192 29.4336 36.6797C30.6934 35.8301 31.2598 35.5957 32.334 35.4883C33.6816 35.3613 34.8535 35.7324 36.2793 36.7578C37.8027 37.8613 38.6621 38.1836 40.2441 38.252C42.1191 38.3399 43.1934 38.0078 44.8242 36.8262C46.1523 35.8594 47.207 35.4492 48.3398 35.4492C49.0527 35.4492 49.3652 34.707 48.8672 34.209C48.623 33.9649 48.584 33.9649 47.8613 34.0234C46.4941 34.1309 45.4883 34.541 44.1113 35.5371C42.7344 36.5234 41.9336 36.8164 40.6055 36.8164C39.8438 36.8164 38.8672 36.6602 38.8672 36.5332C38.8672 36.5039 39.3262 36.2109 39.8926 35.8887C41.9043 34.7461 43.7598 33.2715 44.9023 31.9141C45.8789 30.752 46.416 29.9121 47.1191 28.4668C47.8125 27.041 49.1211 23.6719 49.1211 23.3106C49.1211 23.1836 49.0234 22.9883 48.8965 22.8711C48.6816 22.666 48.5742 22.6563 47.1387 22.6563H45.6055V19.5703C45.6055 16.8067 45.5859 16.4551 45.4395 16.1914C45.1855 15.7715 44.707 15.5176 44.0527 15.459L43.4766 15.4004L43.4375 13.8574C43.4082 12.4219 43.3887 12.2949 43.1934 12.0996C42.9102 11.8164 42.4414 11.8164 42.1582 12.0996C41.9629 12.2949 41.9434 12.4219 41.9141 13.8574L41.875 15.4004L41.2988 15.459C40.6836 15.5078 40.1855 15.7617 39.9414 16.1328C39.8242 16.3184 39.7852 16.9336 39.7461 19.4824L39.6973 22.6074L37.1875 22.6367C35.752 22.6465 34.668 22.6172 34.668 22.5684C34.668 22.5195 34.7363 22.3242 34.8145 22.1387C34.9414 21.8359 34.9609 20.8887 34.9609 15.7031V9.61915L34.6875 9.03321C34.375 8.37892 33.877 7.89063 33.2129 7.57813C32.7734 7.37306 32.6367 7.37306 26.8066 7.35353C22.1484 7.33399 20.752 7.36329 20.3809 7.46095ZM23.4375 11.3965C23.4375 13.9356 23.4473 14.0039 23.6523 14.2285C24.0039 14.5996 24.2871 14.5215 25.498 13.6817L26.6211 12.9102L27.7246 13.6817C28.8672 14.4727 29.1797 14.5801 29.5508 14.3164C29.7266 14.1895 29.7363 14.0039 29.7852 11.5039L29.834 8.8379L31.0352 8.8086C32.4414 8.77931 32.959 8.93556 33.3008 9.4922C33.4863 9.8047 33.4961 9.96095 33.4961 15.7324V21.6504L33.2812 21.9727C33.1543 22.1484 32.9004 22.3731 32.7148 22.4707C32.3926 22.6465 32.0312 22.6563 26.6602 22.6563H20.9375L20.5078 22.4317C19.6875 22.0313 19.7266 22.3242 19.7266 15.7227C19.7266 9.13087 19.6875 9.44337 20.5078 9.01368C20.8789 8.8086 21.0645 8.78907 22.1875 8.78907H23.4375V11.3965ZM28.3203 10.5469V12.3047L27.5977 11.8067C27.168 11.5039 26.7773 11.2988 26.6113 11.2988C26.4551 11.2988 26.0645 11.5039 25.625 11.8067L24.9023 12.3145V10.5567V8.78907H26.6113H28.3203V10.5469ZM13.0078 15.1172L13.2324 15.3418V18.9746V22.6074L9.84375 22.6367C7.96875 22.6465 6.44531 22.627 6.44531 22.5879C6.44531 22.5391 7.08984 20.8496 7.88086 18.8184C9.08203 15.7422 9.35547 15.0977 9.57031 14.9805C9.75586 14.8731 10.166 14.8535 11.2988 14.8731C12.7051 14.8926 12.8027 14.9024 13.0078 15.1172ZM44.1406 19.7754V22.6563H42.6758H41.2109V19.7754V16.8945H42.6758H44.1406V19.7754ZM46.9238 25.2246C45.8984 27.8906 45.1465 29.3164 43.9844 30.7422C42.7637 32.2559 40.5957 33.916 38.291 35.0977L37.2461 35.6348L36.7578 35.293C36.1328 34.8438 35.0488 34.3359 34.375 34.1699C34.0723 34.0918 33.3398 34.0332 32.7148 34.0332C31.0547 34.043 30.2539 34.3262 28.5645 35.4981C26.9434 36.6211 26.1719 36.875 24.6387 36.7969C23.4863 36.7285 22.8711 36.4942 21.5723 35.5957C20.2344 34.668 19.4629 34.2969 18.4863 34.1309C17.5195 33.9551 16.8555 33.9551 15.8887 34.1309C14.9121 34.2969 14.1406 34.668 12.8027 35.5957C11.4551 36.5234 10.8984 36.7383 9.63867 36.7969C8.68164 36.8359 8.06641 36.7481 7.41211 36.4649L7.06055 36.3086L7.00195 34.6387C6.86523 30.6738 5.88867 27.9199 3.33008 24.3067C3.20312 24.1211 3.45703 24.1211 25.2734 24.1211H47.3438L46.9238 25.2246Z" fill="black"/>
<path d="M9.31638 26.3574C8.19334 26.8652 7.72459 28.2617 8.30076 29.3945C9.13084 31.0059 11.5429 30.8691 12.2558 29.1797C12.9883 27.4023 11.0742 25.5566 9.31638 26.3574ZM10.6836 27.8418C11.2011 28.2422 10.8594 29.1016 10.1855 29.1016C9.87302 29.1016 9.47263 28.6914 9.47263 28.3691C9.47263 28.0469 9.87302 27.6367 10.1855 27.6367C10.3125 27.6367 10.5371 27.7246 10.6836 27.8418Z" fill="black"/>
<path d="M15.8105 26.4453C14.4629 27.1485 14.248 28.9649 15.3906 29.961C16.8261 31.2305 18.9843 30.2735 18.9843 28.3692C18.9843 26.6797 17.3047 25.6641 15.8105 26.4453ZM17.334 27.8809C17.4707 28.0078 17.5781 28.2324 17.5781 28.3692C17.5781 28.6914 17.1777 29.1016 16.8652 29.1016C16.4843 29.1016 16.1133 28.75 16.1133 28.3887C16.1133 27.7246 16.8652 27.4024 17.334 27.8809Z" fill="black"/>
<path d="M33.1543 27.8809C33.0176 28.0078 32.9102 28.2324 32.9102 28.3691C32.9102 28.5059 33.0176 28.7305 33.1543 28.8574L33.3887 29.1016H36.7969C40.5957 29.1016 40.5566 29.1113 40.6836 28.4473C40.7324 28.1934 40.6934 28.0859 40.498 27.8906L40.2441 27.6367H36.8164H33.3887L33.1543 27.8809Z" fill="black"/>
<path d="M1.07414 38.5742C0.830002 38.8184 0.820236 39.2676 1.05461 39.5508C1.2011 39.7266 1.37688 39.7852 2.03117 39.8438C3.21281 39.9707 3.66203 40.1563 5.04875 41.084C6.81633 42.2754 7.46086 42.5293 8.9843 42.6367C10.6445 42.7441 11.9335 42.3438 13.6034 41.1719C15.2538 40.0293 15.9667 39.7852 17.4902 39.8633C18.7011 39.9219 19.2773 40.1465 20.5956 41.0547C21.9335 41.9824 22.7245 42.3633 23.7011 42.5293C24.6679 42.7051 25.332 42.7051 26.2988 42.5293C27.2753 42.3633 28.0468 41.9922 29.3847 41.0645C30.6835 40.166 31.2988 39.9316 32.4511 39.8633C33.9843 39.7852 34.7265 40.0293 36.3573 41.1524C37.8905 42.207 38.6718 42.5195 40.0683 42.6367C41.9042 42.7832 43.1445 42.3731 45.2148 40.918C46.2304 40.2051 46.8456 39.9609 47.9296 39.8535C48.623 39.7852 48.7988 39.7266 48.9452 39.5508C49.1796 39.2676 49.1698 38.8574 48.9257 38.5938C48.7597 38.418 48.6132 38.3789 48.0663 38.3789C46.7382 38.3789 45.6933 38.7793 44.0722 39.9121C42.9784 40.6738 42.3339 40.9668 41.4648 41.1231C39.9706 41.377 38.8671 41.0742 37.2558 39.9805C36.6113 39.5508 35.8984 39.0918 35.664 38.9746C34.9316 38.6035 33.8476 38.3789 32.7734 38.3789C31.162 38.3789 30.0585 38.7598 28.5644 39.8438C27.4999 40.6152 26.6894 40.9863 25.7616 41.1328C24.287 41.3574 23.0175 40.9863 21.455 39.8633C19.9706 38.7891 19.1503 38.4766 17.6073 38.4082C15.7128 38.3106 14.8046 38.5938 12.9882 39.834C11.621 40.7617 10.8984 41.0742 9.84367 41.1719C8.45695 41.2891 7.4511 40.9668 5.92766 39.9121C4.30656 38.7793 3.26164 38.3789 1.93352 38.3789C1.39641 38.3789 1.23039 38.418 1.07414 38.5742Z" fill="black"/>
</svg>
