<svg width="20" height="20" viewBox="0 0 20 20" fill="none" xmlns="http://www.w3.org/2000/svg">
<path fill-rule="evenodd" clip-rule="evenodd" d="M6.04167 8.33333C6.04167 7.28352 6.45871 6.2767 7.20104 5.53437C7.94337 4.79204 8.95019 4.375 10 4.375C11.0498 4.375 12.0566 4.79204 12.799 5.53437C13.5413 6.2767 13.9583 7.28352 13.9583 8.33333C13.9583 9.38315 13.5413 10.39 12.799 11.1323C12.0566 11.8746 11.0498 12.2917 10 12.2917C8.95019 12.2917 7.94337 11.8746 7.20104 11.1323C6.45871 10.39 6.04167 9.38315 6.04167 8.33333ZM10 5.625C9.28171 5.625 8.59284 5.91034 8.08492 6.41825C7.57701 6.92616 7.29167 7.61504 7.29167 8.33333C7.29167 9.05163 7.57701 9.7405 8.08492 10.2484C8.59284 10.7563 9.28171 11.0417 10 11.0417C10.7183 11.0417 11.4072 10.7563 11.9151 10.2484C12.423 9.7405 12.7083 9.05163 12.7083 8.33333C12.7083 7.61504 12.423 6.92616 11.9151 6.41825C11.4072 5.91034 10.7183 5.625 10 5.625Z" fill="black"/>
<path fill-rule="evenodd" clip-rule="evenodd" d="M2.93666 7.38085C3.0791 5.65319 3.86602 4.04226 5.14118 2.86791C6.41633 1.69357 8.08647 1.04168 9.82 1.04169H10.18C11.9135 1.04168 13.5837 1.69357 14.8588 2.86791C16.134 4.04226 16.9209 5.65319 17.0633 7.38085C17.2218 9.30526 16.6273 11.2161 15.405 12.7109L11.4108 17.595C11.2399 17.804 11.0247 17.9725 10.7807 18.0881C10.5367 18.2038 10.27 18.2638 10 18.2638C9.72998 18.2638 9.46333 18.2038 9.21934 18.0881C8.97534 17.9725 8.7601 17.804 8.58916 17.595L4.595 12.7109C3.3726 11.2161 2.77807 9.30527 2.93666 7.38085ZM9.82 2.29169C8.4004 2.2919 7.03278 2.82588 5.9886 3.78762C4.94442 4.74936 4.30003 6.06856 4.18333 7.48335C4.05133 9.0849 4.54607 10.6752 5.56333 11.9192L9.5575 16.8042C9.61119 16.8699 9.67882 16.9229 9.7555 16.9592C9.83217 16.9956 9.91597 17.0145 10.0008 17.0145C10.0857 17.0145 10.1695 16.9956 10.2462 16.9592C10.3228 16.9229 10.3905 16.8699 10.4442 16.8042L14.4383 11.9192C15.455 10.6749 15.9491 9.08468 15.8167 7.48335C15.7 6.06842 15.0554 4.7491 14.0111 3.78734C12.9667 2.82557 11.5989 2.29169 10.1792 2.29169H9.81917H9.82Z" fill="black"/>
</svg>
