<svg width="20" height="20" viewBox="0 0 20 20" fill="none" xmlns="http://www.w3.org/2000/svg">
<path d="M3.375 17.5C3.125 17.5 2.91667 17.4167 2.75 17.25C2.58333 17.0833 2.5 16.875 2.5 16.625V13.25C2.5 13.0556 2.5625 12.8853 2.6875 12.7392C2.8125 12.5931 2.97222 12.4994 3.16667 12.4583L6.04167 11.875C6.23611 11.8472 6.43417 11.8647 6.63583 11.9275C6.8375 11.9903 7.00056 12.0839 7.125 12.2083L9.08333 14.1667C10.1389 13.5278 11.1078 12.7708 11.99 11.8958C12.8722 11.0208 13.6047 10.0833 14.1875 9.08333L12.1667 7.04167C12.0417 6.91667 11.9619 6.77417 11.9275 6.61417C11.8931 6.45417 11.8894 6.27722 11.9167 6.08333L12.4583 3.16667C12.4861 2.97222 12.5764 2.8125 12.7292 2.6875C12.8819 2.5625 13.0556 2.5 13.25 2.5H16.625C16.875 2.5 17.0833 2.58333 17.25 2.75C17.4167 2.91667 17.5 3.125 17.5 3.375C17.5 5.16667 17.1006 6.91333 16.3017 8.615C15.5028 10.3167 14.4472 11.8236 13.135 13.1358C11.8228 14.4481 10.3158 15.5036 8.61417 16.3025C6.9125 17.1014 5.16611 17.5006 3.375 17.5ZM14.9792 7.5C15.2153 6.95833 15.3958 6.40972 15.5208 5.85417C15.6458 5.29861 15.7431 4.73611 15.8125 4.16667H13.9583L13.6042 6.125L14.9792 7.5ZM7.52083 14.9583L6.125 13.5625L4.16667 13.9583V15.7917C4.73611 15.75 5.30222 15.6597 5.865 15.5208C6.42778 15.3819 6.97972 15.1944 7.52083 14.9583Z" fill="black"/>
</svg>
