<svg width="18" height="18" viewBox="0 0 18 18" fill="none" xmlns="http://www.w3.org/2000/svg">
<path d="M1.05 18C0.75 18 0.5 17.9 0.3 17.7C0.0999999 17.5 0 17.25 0 16.95V12.9C0 12.6667 0.0749999 12.4623 0.225 12.287C0.375 12.1117 0.566667 11.9993 0.8 11.95L4.25 11.25C4.48333 11.2167 4.721 11.2377 4.963 11.313C5.205 11.3883 5.40067 11.5007 5.55 11.65L7.9 14C9.16667 13.2333 10.3293 12.325 11.388 11.275C12.4467 10.225 13.3257 9.1 14.025 7.9L11.6 5.45C11.45 5.3 11.3543 5.129 11.313 4.937C11.2717 4.745 11.2673 4.53267 11.3 4.3L11.95 0.8C11.9833 0.566667 12.0917 0.375 12.275 0.225C12.4583 0.0749999 12.6667 0 12.9 0H16.95C17.25 0 17.5 0.0999999 17.7 0.3C17.9 0.5 18 0.75 18 1.05C18 3.2 17.5207 5.296 16.562 7.338C15.6033 9.38 14.3367 11.1883 12.762 12.763C11.1873 14.3377 9.379 15.6043 7.337 16.563C5.295 17.5217 3.19933 18.0007 1.05 18ZM14.975 6C15.2583 5.35 15.475 4.69167 15.625 4.025C15.775 3.35833 15.8917 2.68333 15.975 2H13.75L13.325 4.35L14.975 6ZM6.025 14.95L4.35 13.275L2 13.75V15.95C2.68333 15.9 3.36267 15.7917 4.038 15.625C4.71333 15.4583 5.37567 15.2333 6.025 14.95Z" fill="black"/>
</svg>
