<svg width="90" height="90" viewBox="0 0 90 90" fill="none" xmlns="http://www.w3.org/2000/svg">
<rect x="3" width="45" height="45" fill="#FF8A43"/>
<path d="M38.4785 3.14648C38.0566 3.48047 38.0566 3.5332 37.9688 7.75195L37.8809 12.0234L36.9141 12.252C33.9961 12.9727 30.1465 14.5547 27.6855 16.0488L26.6309 16.6992L23.6953 13.7637C20.9883 11.0566 20.707 10.8281 20.127 10.8281C19.5293 10.8281 19.2129 11.1094 15.1699 15.1699C11.1094 19.2129 10.8281 19.5293 10.8281 20.127C10.8281 20.707 11.0566 20.9883 13.7637 23.6953L16.6992 26.6309L16.0488 27.6855C14.5547 30.1465 12.9727 33.9961 12.252 36.9141L12.0234 37.8809L7.75195 37.9688C3.5332 38.0566 3.48047 38.0566 3.14648 38.4785C2.83008 38.8652 2.8125 39.252 2.8125 45C2.8125 50.748 2.83008 51.1348 3.14648 51.5215C3.48047 51.9434 3.5332 51.9434 7.75195 52.0312L12.0234 52.1191L12.252 53.0859C12.9727 56.0039 14.5547 59.8535 16.0488 62.3145L16.6992 63.3691L13.7637 66.3047C11.0566 69.0117 10.8281 69.293 10.8281 69.873C10.8281 70.4531 11.1094 70.7871 14.959 74.6367C17.209 76.9043 19.3008 78.8906 19.5645 79.0312C19.8457 79.1895 20.2148 79.2422 20.4434 79.1895C20.6543 79.1191 22.1309 77.7656 23.7305 76.1836L26.6309 73.3008L27.668 73.9336C30.2168 75.4629 33.416 76.7988 36.3516 77.5898L37.8809 77.9941L37.9688 82.248C38.0566 86.4668 38.0566 86.5195 38.4785 86.8535C38.8652 87.1699 39.252 87.1875 45 87.1875C50.748 87.1875 51.1348 87.1699 51.5215 86.8535C51.9434 86.5195 51.9434 86.4668 52.0312 82.248L52.1191 77.9941L53.6484 77.5898C56.584 76.7988 59.7832 75.4629 62.332 73.9336L63.3691 73.3008L69.5215 79.4355C76.166 86.0625 76.4473 86.2734 78.6445 86.6777C83.2676 87.5391 87.5391 83.2676 86.6777 78.6445C86.2734 76.4473 86.0625 76.166 79.4355 69.5215L73.3008 63.3691L73.9336 62.332C75.4629 59.7832 76.7988 56.584 77.5898 53.6484L77.9941 52.1191L82.248 52.0312C86.4668 51.9434 86.5195 51.9434 86.8535 51.5215C87.1699 51.1348 87.1875 50.748 87.1875 45C87.1875 39.252 87.1699 38.8652 86.8535 38.4785C86.5195 38.0566 86.4668 38.0566 82.248 37.9688L77.9766 37.8809L77.748 36.9141C77.0273 33.9961 75.4453 30.1465 73.9512 27.6855L73.3008 26.6309L76.2363 23.6953C78.9434 20.9883 79.1719 20.707 79.1719 20.127C79.1719 19.5293 78.8906 19.2129 74.8301 15.1699C70.7871 11.1094 70.4707 10.8281 69.873 10.8281C69.293 10.8281 69.0117 11.0566 66.3047 13.7637L63.3691 16.6816L62.666 16.2422C60.2754 14.748 56.9355 13.3242 53.877 12.4805L52.1191 12.0059L52.0312 7.75195C51.9434 3.5332 51.9434 3.48047 51.5215 3.14648C51.1348 2.83008 50.748 2.8125 45 2.8125C39.252 2.8125 38.8652 2.83008 38.4785 3.14648ZM49.2188 9.63281C49.2188 13.377 49.2363 13.6758 49.5703 14.0098C49.957 14.4316 49.9043 14.4141 52.3828 15.0117C55.5996 15.7676 58.7988 17.1387 61.7168 19.002C63.791 20.3379 63.6855 20.373 67.043 17.0508L69.8906 14.2559L72.8262 17.1914L75.7441 20.127L72.9492 22.957C69.627 26.3145 69.6621 26.209 70.998 28.2832C72.8262 31.1309 74.25 34.4707 74.9883 37.582C75.5859 40.0957 75.5684 40.043 75.9902 40.4297C76.3242 40.7637 76.623 40.7812 80.3672 40.7812H84.375V45V49.2188H80.3672C76.623 49.2188 76.3242 49.2363 75.9902 49.5703C75.5684 49.957 75.5859 49.9043 74.9883 52.418C74.4258 54.7559 73.582 56.9707 72.2988 59.4492L71.2969 61.3652L69.2402 59.3086L67.166 57.252L67.6055 56.4082C68.3438 54.9492 69.0645 52.9805 69.5039 51.2051C71.2793 44.2266 70.0137 36.8965 65.9883 30.832C64.6875 28.8984 62.0859 26.1562 60.1348 24.6973C58.3242 23.3262 55.1426 21.6738 52.998 20.9531C49.9746 19.9512 48.7617 19.7754 44.9121 19.7754C41.748 19.793 41.2031 19.8281 39.4453 20.25C34.6816 21.375 30.5332 23.6602 27.1758 26.9824C23.2734 30.8496 20.8301 35.5957 19.9336 41.1328C19.5293 43.5938 19.6875 48.1465 20.2676 50.625C21.3574 55.248 23.4141 59.0098 26.7188 62.4551C30.3574 66.2695 34.7168 68.6953 39.9551 69.8203C42.3457 70.3301 47.2852 70.3828 49.623 69.9082C51.6094 69.5039 53.9824 68.7305 55.8105 67.8691L57.2695 67.1836L59.3086 69.2402L61.3477 71.2969L60.082 71.9824C57.3223 73.4766 54.6328 74.5312 51.9082 75.1465C51.2578 75.2871 50.5371 75.4453 50.3262 75.498C50.1152 75.5508 49.7637 75.7617 49.5703 75.9727C49.2363 76.3418 49.2188 76.5879 49.2188 80.3672V84.375H45H40.7812V80.3672C40.7812 76.623 40.7637 76.3242 40.4297 75.9902C40.043 75.5684 40.0957 75.5859 37.582 74.9883C34.4707 74.25 31.1309 72.8262 28.2832 70.998C26.209 69.6621 26.3145 69.627 22.957 72.9492L20.1094 75.7441L17.1738 72.8086L14.2559 69.873L17.0508 67.043C20.373 63.6855 20.3379 63.791 19.002 61.7168C17.1914 58.8691 15.8027 55.6699 15.0293 52.4707C14.4492 50.0801 14.2734 49.6055 13.8691 49.3945C13.6934 49.2891 11.7949 49.2188 9.59766 49.2188H5.625V45V40.7812H9.63281C13.377 40.7812 13.6758 40.7637 14.0098 40.4297C14.4316 40.043 14.4141 40.0957 15.0117 37.582C15.75 34.4707 17.1738 31.1309 19.002 28.2832C20.3379 26.209 20.373 26.3145 17.0508 22.957L14.2559 20.1094L17.1914 17.1738L20.127 14.2559L22.957 17.0508C26.332 20.3906 26.1914 20.3379 28.3535 18.9668C31.166 17.1562 34.6289 15.6973 37.9688 14.9238C39.8672 14.4844 40.3945 14.2734 40.6055 13.8691C40.7109 13.6934 40.7812 11.7949 40.7812 9.59766V5.625H45H49.2188V9.63281ZM48.4277 22.7637C50.9238 23.168 52.4883 23.6602 54.7559 24.7676C65.6191 30.0762 70.3301 42.5566 65.707 53.7539C65.4258 54.4395 65.127 55.0195 65.0566 55.0195C64.8105 55.0195 57.3223 47.3379 57.0234 46.7578C56.7422 46.2305 56.6895 45.8086 56.7246 43.9629C56.7773 41.3965 56.584 39.9902 55.916 38.0215C54.4395 33.7148 50.7656 30.3223 46.2129 29.0742C44.6484 28.6348 40.7812 28.6348 39.2344 29.0566C37.6348 29.5137 36.2637 30.1465 36.0527 30.5508C35.543 31.5176 35.666 31.6934 39.7266 35.7715L43.5938 39.6562V41.625V43.5938H41.625H39.6562L35.7715 39.7266C31.6934 35.666 31.5176 35.543 30.5508 36.0527C30.1465 36.2637 29.5137 37.6348 29.0566 39.2344C28.6348 40.7812 28.6348 44.6484 29.0742 46.2129C30.3223 50.7656 33.7148 54.4395 38.0215 55.916C39.9902 56.584 41.3965 56.7773 43.9629 56.7246C45.8086 56.6895 46.2305 56.7422 46.7578 57.0234C47.3379 57.3223 55.0195 64.8105 55.0195 65.0566C55.0195 65.2148 52.7871 66.1465 51.293 66.6035C48.2344 67.5352 43.7344 67.7285 40.623 67.0605C31.0254 65.0215 24.0293 57.5508 22.6582 47.8301C22.5352 46.8984 22.4824 45.4395 22.5527 43.9629C23.0273 33.1523 31.0605 24.2754 41.8184 22.6934C43.4531 22.4473 46.7402 22.4824 48.4277 22.7637ZM45.0879 31.7285C46.6875 32.0625 48.9199 33.1875 50.1504 34.2949C51.5039 35.4902 52.7871 37.4941 53.3672 39.252C53.7891 40.5527 53.8418 40.9746 53.877 43.5938C53.9121 46.6348 54.0352 47.2852 54.8789 48.6738C55.0898 49.0254 61.6289 55.7051 69.4336 63.5449C84.5508 78.7324 84.0234 78.1348 84.0234 79.8047C84.0234 81.9844 81.9844 84.0234 79.8047 84.0234C78.1348 84.0234 78.7324 84.5508 63.5449 69.4336C54.9492 60.873 48.9902 55.0547 48.5156 54.791C47.1621 54 45.8613 53.7539 43.7695 53.877C42.3809 53.9648 41.5723 53.9297 40.5176 53.7012C35.0156 52.5762 31.2188 47.6895 31.5176 42.0996C31.5703 41.2207 31.6582 40.377 31.7285 40.2012C31.834 39.9375 32.4141 40.4297 35.1387 43.1367L38.4258 46.4062H41.9941C46.7578 46.4062 46.4062 46.7578 46.4062 41.9941V38.4258L43.1191 35.1387C39.6035 31.5879 39.7617 31.8516 41.0449 31.5879C41.8359 31.4121 43.9453 31.4824 45.0879 31.7285Z" fill="black"/>
<path d="M52.0137 52.0137C51.5567 52.4883 51.4863 52.6641 51.5742 53.1387C51.7149 53.877 52.9981 55.1602 53.7363 55.3008C54.211 55.3887 54.3867 55.3184 54.8613 54.8614C55.3184 54.3868 55.3887 54.211 55.3008 53.7364C55.1602 52.9981 53.877 51.7149 53.1387 51.5743C52.6641 51.4864 52.4883 51.5567 52.0137 52.0137Z" fill="black"/>
<path d="M56.9531 56.9531C56.7246 57.1816 56.6016 57.5332 56.6016 57.955C56.6016 58.5879 56.9355 58.9394 65.1797 67.2011C70.207 72.2461 73.9863 75.9023 74.3203 76.0429C75.4805 76.5527 76.5527 75.4804 76.043 74.3203C75.9023 73.9863 72.2461 70.207 67.2012 65.1621C58.9395 56.9355 58.5879 56.6015 57.9551 56.6015C57.5332 56.6015 57.1816 56.7246 56.9531 56.9531Z" fill="black"/>
<path d="M78.2226 77.5723C77.5723 77.9063 77.2559 78.6445 77.5195 79.2598C77.7656 79.875 78.873 80.9648 79.418 81.1231C80.3672 81.4043 81.4043 80.3672 81.123 79.418C80.9648 78.9082 80.0508 77.9238 79.418 77.5898C78.8379 77.291 78.7851 77.291 78.2226 77.5723Z" fill="black"/>
</svg>
