<svg width="50" height="50" viewBox="0 0 50 50" fill="none" xmlns="http://www.w3.org/2000/svg">
<rect width="25" height="25" fill="#348C93"/>
<path d="M13.0274 8.39842C12.4902 8.61326 12.3438 9.32615 12.7442 9.71678C12.9785 9.95115 13.0176 9.96092 14.541 9.96092H16.1133L16.5039 10.7422C16.7188 11.1719 16.8945 11.5332 16.8945 11.5625C16.8945 11.582 15.957 11.6211 14.8242 11.6406C12.5488 11.6894 12.334 11.7383 11.6699 12.3242C11.1035 12.8222 10.8887 13.3105 10.8887 14.1601C10.8887 15.0195 11.1035 15.498 11.6797 16.0156C12.207 16.4746 12.627 16.6211 13.5938 16.6797L14.4434 16.7285L13.2031 19.1992L11.9629 21.6797H11.4551C10.4785 21.6797 10.332 21.7969 8.91603 23.6523L7.90041 25H7.12892C6.709 25 6.25001 25.0488 6.12306 25.1074C5.97658 25.1758 5.16603 26.3476 3.85744 28.3789C2.73439 30.1269 1.78712 31.5722 1.7383 31.6015C1.68947 31.6308 1.38673 31.6699 1.06447 31.6699C0.54689 31.6894 0.439468 31.7285 0.23439 31.9629C-0.0683444 32.3144 -0.0683444 32.7539 0.224624 33.0469C0.410171 33.2324 0.585953 33.2812 1.41603 33.3398C3.35939 33.4765 4.72658 33.8965 6.47462 34.8926C7.77345 35.6347 8.72072 36.0254 9.91212 36.3379C10.7031 36.5527 10.9961 36.5722 12.9395 36.5722C14.9707 36.5722 15.1367 36.5527 16.0156 36.3086C17.0996 36.0058 17.9785 35.6347 19.541 34.7949C21.4063 33.789 22.5 33.457 24.3848 33.3398C26.6602 33.1933 28.5449 33.6816 30.9082 35.0488C31.8848 35.6054 32.9492 36.0449 34.0723 36.3476C34.6582 36.5039 35.2246 36.5527 36.7188 36.5918C38.4082 36.6308 38.7402 36.6113 39.6485 36.4258C40.9375 36.1621 42.1289 35.6933 43.5254 34.8926C45.2637 33.8965 46.6309 33.4765 48.5742 33.3398C49.6582 33.2617 49.8828 33.1445 49.961 32.6074C50.0098 32.3242 49.9707 32.207 49.7754 31.9726C49.5313 31.6894 49.5215 31.6894 48.5059 31.6992C46.4551 31.7285 44.7266 32.2656 42.4121 33.5937C42.0215 33.8183 41.6992 33.9746 41.6992 33.9551C41.6992 33.9258 43.5059 31.7383 45.7129 29.0918C47.9297 26.4355 49.7949 24.1308 49.8633 23.9551C50.1758 23.2226 49.8731 22.334 49.1797 21.9238L48.7598 21.6797H44.9414H41.1231L36.6992 18.457L32.2754 15.2441L31.9238 14.5312C31.2793 13.2422 30.2539 12.334 28.916 11.8945C28.3008 11.6894 28.086 11.6797 23.5547 11.6406L18.8379 11.6015L18.457 10.8301C18.2422 10.4101 18.0664 10.039 18.0664 10.0097C18.0664 9.98045 19.1406 9.96092 20.4492 9.96092C23.125 9.96092 23.1934 9.94139 23.3008 9.26756C23.3496 8.98436 23.3106 8.86717 23.1152 8.63279L22.8711 8.34959L18.0469 8.33006C15.4004 8.32029 13.1348 8.34959 13.0274 8.39842ZM28.8574 13.6719C29.3457 13.9062 30.2735 14.7363 30.2735 14.9414C30.2735 15.0097 27.7149 15.039 21.6211 15.0195L12.9688 14.9902L12.7344 14.7168C12.4317 14.3554 12.4317 13.9258 12.7442 13.6133L12.9785 13.3789L20.6738 13.3984L28.3692 13.4277L28.8574 13.6719ZM21.6797 17.3535C21.6895 18.4179 22.1875 19.2676 23.0957 19.7558C23.4863 19.9707 23.5645 19.9707 29.7852 20.0195L36.084 20.0683L37.1582 20.8496L38.2227 21.6308L26.084 21.6601C19.3945 21.6699 13.916 21.6601 13.8965 21.6406C13.877 21.6211 14.4043 20.498 15.0781 19.1504L16.3086 16.6992H18.9942H21.6797V17.3535ZM32.4707 17.4414C33.0371 17.8515 33.5254 18.2324 33.5547 18.2812C33.584 18.3301 31.5723 18.3496 28.711 18.3398L23.8086 18.3105L23.5742 18.0371C23.3887 17.8222 23.3399 17.6562 23.3399 17.2265V16.6992H27.3926H31.4453L32.4707 17.4414ZM28.3203 23.9062C28.3203 24.5215 28.125 24.8535 27.7051 24.9512C27.5879 24.9804 23.5645 24.9902 18.7695 24.9804L10.0488 24.9512L10.6543 24.1406L11.25 23.3398H19.7852H28.3203V23.9062ZM32.5195 24.7558C32.5195 26.1426 32.5293 26.1914 32.7637 26.416C33.0957 26.7578 33.5254 26.7383 33.8965 26.3769L34.1797 26.0937V24.7168V23.3398H35.0098H35.8399V24.7265C35.8496 26.1816 35.8789 26.3281 36.2988 26.5429C36.6406 26.7285 36.9141 26.6797 37.2168 26.3769L37.5 26.0937V24.7168V23.3398H38.3301H39.1602V24.7168V26.0937L39.4434 26.3769C39.7461 26.6797 40.0195 26.7285 40.3613 26.5429C40.7813 26.3281 40.8106 26.1816 40.8203 24.7265V23.3398H44.541C46.582 23.3398 48.2422 23.3789 48.2227 23.4179C48.2129 23.4668 46.0742 26.0547 43.4766 29.1699C40.6445 32.5781 38.6719 34.8633 38.5449 34.9023C38.4277 34.9316 37.7539 34.9609 37.0508 34.9609C34.9024 34.9609 33.4766 34.5801 31.5527 33.5058C30.1367 32.7051 29.3457 32.3633 28.3008 32.0801C25.9863 31.4648 23.1836 31.5332 21.0254 32.2656C20.2442 32.5293 19.4336 32.9199 18.2617 33.5937C16.4258 34.6582 14.9219 35.0097 12.5 34.9316C10.2637 34.873 9.2383 34.5605 7.03126 33.3008C6.14259 32.7929 4.69728 32.1972 4.07228 32.0801C3.87697 32.041 3.69142 31.9726 3.66212 31.9336C3.63283 31.8847 4.35548 30.6933 5.26369 29.2773L6.90431 26.709L17.5391 26.6601C29.3652 26.6015 28.5059 26.6601 29.2285 25.9375C29.7656 25.4004 29.9121 25.0488 29.961 24.1406L30.0098 23.3398H31.2598H32.5195V24.7558Z" fill="black"/>
<path d="M0.615234 36.6894C0.3125 36.748 0 37.1679 0 37.5195C0 37.8808 0.371094 38.2519 0.791016 38.3203C0.976562 38.3496 1.52344 38.3886 2.00195 38.4179C3.55469 38.5058 4.87305 38.9648 6.875 40.1172C8.99414 41.3379 11.6211 41.875 14.209 41.6113C16.1816 41.416 17.0605 41.0937 20.2148 39.4531C21.7383 38.6621 22.5879 38.457 24.6289 38.3984C27.1777 38.3398 28.4668 38.6523 30.6055 39.873C32.5 40.957 33.8574 41.4062 35.7617 41.6113C38.3203 41.8847 41.0059 41.3379 43.125 40.1172C45.1855 38.9258 46.4648 38.5058 48.3008 38.3886C49.502 38.3105 49.8535 38.1738 49.9609 37.7246C50.0684 37.3242 49.8926 36.9824 49.4824 36.7773C49.1406 36.6211 49.0234 36.6113 47.9688 36.709C45.9961 36.9043 44.541 37.373 42.8223 38.3789C42.2852 38.6914 41.5723 39.0527 41.25 39.1992C39.1602 40.0683 36.582 40.2344 34.248 39.6386C33.4277 39.4336 32.3047 38.9258 30.9082 38.1445C29.9316 37.5879 28.75 37.1484 27.5391 36.8945C26.2305 36.6113 23.7695 36.6113 22.4609 36.8945C21.25 37.1484 20.0684 37.5879 19.0918 38.1445C16.9141 39.375 15.8203 39.7558 13.9941 39.9414C12.2168 40.1269 10.0586 39.8047 8.61328 39.1406C8.35938 39.0234 7.70508 38.6719 7.16797 38.3691C5.44922 37.3828 4.00391 36.914 2.1582 36.7285C1.13281 36.6211 0.996094 36.6113 0.615234 36.6894Z" fill="black"/>
</svg>
