<svg width="50" height="50" viewBox="0 0 50 50" fill="none" xmlns="http://www.w3.org/2000/svg">
<g clip-path="url(#clip0_143_291)">
<rect width="25" height="25" fill="#FF8A43"/>
<path d="M22.9785 12.7344C22.7148 12.9688 22.7051 12.9981 22.6562 14.2383L22.6074 15.4981L21.8262 16.5332C20.6738 18.0566 20.9668 17.9688 17.1484 17.9688H13.9648V16.6602C13.9648 15.5176 13.9453 15.3223 13.7793 15.127L13.5938 14.8926L10.293 14.8633C8.03711 14.8438 6.91406 14.8731 6.72852 14.9414C6.33789 15.1074 6.25 15.4199 6.25 16.7383V17.9395L5.40039 17.9981C4.3457 18.0762 3.49609 18.4473 2.98828 19.0723C2.8125 19.2969 2.06055 20.6836 1.32812 22.1387L0 24.8047V28.1836C0 30.0879 0.0390625 31.6309 0.0878906 31.7285C0.136719 31.8164 0.859375 32.2363 1.67969 32.6465C2.91992 33.2715 3.30078 33.418 3.90625 33.4961C5.18555 33.6816 6.24023 33.4473 7.5293 32.7051C8.55469 32.1191 8.82812 32.0313 9.77539 32.0313C10.6445 32.0313 11.0059 32.1387 12.0605 32.7539C13.0957 33.3496 13.7109 33.5254 14.7949 33.5352C15.8887 33.5352 16.5918 33.3398 17.6172 32.7441C18.6621 32.1484 19.0332 32.0313 19.9219 32.0313C20.791 32.0313 21.2305 32.1582 22.1484 32.7051C23.1738 33.3203 23.8281 33.5156 24.9023 33.5254C26.1035 33.5352 26.6504 33.3984 27.7051 32.793C28.8379 32.1387 29.1797 32.0313 30.0781 32.0313C30.957 32.0313 31.3477 32.1484 32.3926 32.7441C33.418 33.3398 34.1211 33.5352 35.2051 33.5352C36.2988 33.5254 36.9141 33.3496 37.998 32.7246C39.0039 32.1484 39.3848 32.0313 40.2832 32.0313C41.1621 32.0313 41.4648 32.1191 42.4707 32.7051C43.584 33.3496 44.248 33.5352 45.4102 33.5254C46.4746 33.5156 47.1777 33.3203 48.1445 32.7539C48.4668 32.5684 48.9844 32.3047 49.2773 32.168C50.0684 31.8164 50.2344 31.1816 49.6484 30.791C49.2969 30.5664 48.7402 30.7227 47.5488 31.4063C45.8887 32.3438 44.668 32.3438 43.1836 31.4063L42.7637 31.1426L46.2598 28.3496C48.1836 26.8066 49.8047 25.4785 49.873 25.4004C50.0391 25.1856 50.0195 24.7949 49.8438 24.5606C49.707 24.375 49.5508 24.3652 45.7715 24.3164L41.8457 24.2676L39.1016 20.166C36.1523 15.7617 35.9961 15.5762 34.8633 15.1172C34.3457 14.9023 34.1797 14.8926 30.8496 14.8633L27.3633 14.834L27.3242 14.2871C27.2852 13.8379 27.2266 13.6914 27.0117 13.5059C26.6895 13.2324 26.4648 13.2227 26.1328 13.4863C25.9082 13.6621 25.8789 13.7598 25.8789 14.2676V14.8438H25H24.1211V13.877C24.1211 12.9395 24.1113 12.9004 23.8672 12.7051C23.5254 12.4414 23.3105 12.4512 22.9785 12.7344ZM12.5 17.1387V17.9688H10.1074H7.71484V17.1387V16.3086H10.1074H12.5V17.1387ZM34.1602 16.4551C34.7266 16.6211 35.1465 16.9531 35.5664 17.5293L35.8594 17.9199L34.9609 17.9688C34.1699 18.0176 34.043 18.0469 33.877 18.252C33.6621 18.5254 33.6328 18.9356 33.8281 19.1992C33.9551 19.3652 34.1309 19.3945 35.4199 19.4336L36.8652 19.4824L37.373 20.2148C37.6562 20.6152 37.8809 20.9766 37.8906 21.0059C37.8906 21.0449 37.5488 21.0938 37.1387 21.1133C36.5137 21.1523 36.3574 21.2012 36.2109 21.3867C35.9766 21.6699 35.9863 22.1191 36.2305 22.3633C36.4062 22.5391 36.5527 22.5586 37.6758 22.5586H38.9355L39.4824 23.3887L40.0391 24.209L35.8789 24.2383L31.7188 24.2676L31.5332 24.502C31.3086 24.7754 31.2988 25.1758 31.5039 25.4688L31.6504 25.6836H39.3652C43.9941 25.6836 47.0703 25.7227 47.0508 25.7715C47.041 25.8203 45.6934 26.9238 44.082 28.2129L41.1328 30.5664H40.2539C39.1895 30.5664 38.418 30.7813 37.4512 31.3574C36.4551 31.9434 36.0938 32.0606 35.1562 32.0606C34.2676 32.0703 34.1504 32.0313 32.4219 31.1035C31.5918 30.6543 30.9375 30.5371 29.707 30.5859L28.7012 30.6348L27.2852 31.3574L25.8691 32.0703H25H24.1406L22.7051 31.3477L21.2695 30.6152H19.9414C18.4473 30.625 18.3984 30.6348 16.875 31.4746C15.8496 32.041 15.127 32.1973 14.2383 32.041C13.623 31.9336 13.418 31.8457 12.2852 31.2109C11.416 30.7227 10.791 30.5664 9.70703 30.5664C8.62305 30.5664 7.99805 30.7324 7.03125 31.2988C6.09375 31.8457 5.73242 31.9922 5.11719 32.0801C4.27734 32.1875 3.47656 31.9824 2.42188 31.377L1.46484 30.8398V28.3106V25.7813L15.332 25.7617L29.1895 25.7324L29.4043 25.5176C29.668 25.2539 29.6875 24.7852 29.4434 24.5117C29.2676 24.3164 29.1699 24.3164 15.6055 24.3164C8.0957 24.3164 1.95312 24.2969 1.95312 24.2676C1.95312 24.2383 2.44141 23.252 3.02734 22.0703C3.96484 20.2148 4.15039 19.9121 4.47266 19.707L4.83398 19.4824L12.793 19.4336C19.043 19.3945 20.8105 19.3555 21.0449 19.2578C21.6797 18.9844 22.1094 18.5742 22.959 17.4609L23.8379 16.3086H28.75C32.8613 16.3086 33.7402 16.3281 34.1602 16.4551Z" fill="black"/>
<path d="M24.8047 18.0371C24.4727 18.1641 24.3164 18.3984 24.3164 18.7598C24.3164 19.3262 24.541 19.4336 25.7812 19.4336C27.0215 19.4336 27.2461 19.3262 27.2461 18.7598C27.2461 18.1543 27.0117 18.0176 25.8887 17.998C25.3711 17.9883 24.8828 17.998 24.8047 18.0371Z" fill="black"/>
<path d="M29.4922 18.0371C28.9844 18.2324 28.8281 18.8672 29.1992 19.2383C29.375 19.4141 29.5215 19.4336 30.498 19.4336C31.4844 19.4336 31.6309 19.4141 31.7871 19.2383C32.0312 18.9648 32.0117 18.4961 31.748 18.2324C31.5625 18.0469 31.416 18.0176 30.5859 17.998C30.0684 17.9883 29.5703 17.998 29.4922 18.0371Z" fill="black"/>
<path d="M8.33984 21.1914C8.08594 21.2891 7.8125 21.6602 7.8125 21.8848C7.8125 21.9727 7.90039 22.1582 8.01758 22.3047C8.21289 22.5488 8.24219 22.5586 9.33594 22.5586C10.3223 22.5586 10.4688 22.5391 10.6445 22.3633C11.0156 21.9922 10.8594 21.3867 10.3418 21.2012C9.98047 21.0742 8.64258 21.0645 8.33984 21.1914Z" fill="black"/>
<path d="M13.0273 21.1816C12.7734 21.2891 12.5 21.6602 12.5 21.8848C12.5 21.9727 12.5879 22.1582 12.7051 22.3047C12.9004 22.5488 12.9297 22.5586 14.0234 22.5586C15.0098 22.5586 15.1562 22.5391 15.332 22.3633C15.5762 22.1191 15.5859 21.6699 15.3418 21.377C15.1758 21.1719 15.0684 21.1523 14.1992 21.123C13.6621 21.1035 13.1348 21.1328 13.0273 21.1816Z" fill="black"/>
<path d="M17.7246 21.1816C17.2461 21.3867 17.0996 21.9922 17.4317 22.3633C17.5879 22.5391 17.7344 22.5586 18.7207 22.5586C19.9805 22.5586 20.2149 22.4512 20.2149 21.8457C20.2149 21.2891 19.9512 21.1426 18.8574 21.123C18.3399 21.1035 17.832 21.1328 17.7246 21.1816Z" fill="black"/>
<path d="M22.4121 21.1816C21.9434 21.3867 21.7969 22.002 22.1289 22.373C22.2754 22.5391 22.4414 22.5586 23.4375 22.5586C24.7363 22.5586 24.9024 22.4805 24.9024 21.8555C24.9024 21.2793 24.6582 21.1426 23.5449 21.123C23.0274 21.1035 22.5195 21.1328 22.4121 21.1816Z" fill="black"/>
<path d="M27.1484 21.1621C26.8164 21.2891 26.6602 21.5234 26.6602 21.875C26.6602 22.4707 26.8457 22.5586 28.1445 22.5586C29.1406 22.5586 29.2871 22.5391 29.4434 22.3633C29.6875 22.0898 29.668 21.6211 29.4043 21.3574C29.2188 21.1719 29.0723 21.1426 28.2422 21.123C27.7246 21.1133 27.2266 21.123 27.1484 21.1621Z" fill="black"/>
<path d="M31.7676 21.1914C31.3281 21.377 31.2109 22.0312 31.543 22.3633C31.7187 22.5391 31.8652 22.5586 32.8418 22.5586C34.0527 22.5586 34.1894 22.5 34.3262 21.9629C34.375 21.7676 34.3262 21.6406 34.1504 21.4258C33.916 21.1523 33.8672 21.1426 32.9394 21.123C32.4121 21.1035 31.8848 21.1426 31.7676 21.1914Z" fill="black"/>
<path d="M8.0176 27.6953C7.75392 28.0371 7.76369 28.2519 8.04689 28.584C8.25197 28.8281 8.34963 28.8574 9.02345 28.8867C9.94142 28.9355 10.4004 28.8574 10.6543 28.6035C10.8985 28.3594 10.8887 27.8808 10.6445 27.6367C10.4688 27.4609 10.3223 27.4414 9.33595 27.4414C8.2422 27.4414 8.21291 27.4511 8.0176 27.6953Z" fill="black"/>
<path d="M12.7051 27.6953C12.4414 28.0371 12.4512 28.252 12.7344 28.584C12.9688 28.8574 12.9883 28.8574 14.0625 28.8574C15.0879 28.8574 15.166 28.8477 15.3418 28.623C15.586 28.3301 15.5762 27.8809 15.332 27.6367C15.1563 27.4609 15.0098 27.4414 14.0235 27.4414C12.9297 27.4414 12.9004 27.4512 12.7051 27.6953Z" fill="black"/>
<path d="M17.4317 27.6367C17.1875 27.9102 17.2071 28.3789 17.4707 28.6426C17.666 28.8379 17.7832 28.8574 18.7403 28.8574C19.9707 28.8574 20.2149 28.7402 20.2149 28.1543C20.2149 27.5488 19.9805 27.4414 18.7207 27.4414C17.7344 27.4414 17.5879 27.4609 17.4317 27.6367Z" fill="black"/>
<path d="M22.1289 27.627C21.8847 27.8906 21.8945 28.3887 22.1582 28.6426C22.3437 28.8379 22.4707 28.8574 23.4277 28.8574C24.6777 28.8574 24.9023 28.7402 24.9023 28.125C24.9023 27.5293 24.7168 27.4414 23.4179 27.4414C22.4414 27.4414 22.2754 27.4609 22.1289 27.627Z" fill="black"/>
<path d="M26.8262 27.6172C26.5918 27.8809 26.6113 28.4473 26.8652 28.6719C27.041 28.8281 27.2265 28.8574 28.1348 28.8574C29.0918 28.8574 29.209 28.8379 29.4043 28.6426C29.668 28.3789 29.6875 27.9102 29.4433 27.6367C29.2871 27.4609 29.1406 27.4414 28.125 27.4414C27.1387 27.4414 26.9629 27.4707 26.8262 27.6172Z" fill="black"/>
<path d="M31.543 27.6367C31.2988 27.8809 31.2891 28.3301 31.5332 28.623C31.709 28.8477 31.7871 28.8574 32.8125 28.8574C33.8965 28.8574 33.9063 28.8574 34.1504 28.5742C34.3262 28.3594 34.375 28.2324 34.3262 28.0371C34.1895 27.5 34.0527 27.4414 32.8418 27.4414C31.8652 27.4414 31.7188 27.4609 31.543 27.6367Z" fill="black"/>
<path d="M8.46679 34.5801C8.07617 34.668 7.72461 34.834 6.43554 35.5176C5.07812 36.25 3.99414 36.1914 2.45117 35.3125C1.25976 34.6289 0.703121 34.4726 0.351558 34.6973C0.214839 34.7949 0.068355 34.9805 0.0390581 35.1172C-0.0683638 35.5566 0.14648 35.8203 0.898433 36.1816C1.28906 36.3672 1.89453 36.6699 2.24609 36.8652C3.07617 37.3144 4.12109 37.5391 5.04882 37.4609C5.92773 37.3828 6.66015 37.1289 7.60742 36.582C8.01757 36.3476 8.51562 36.1035 8.73046 36.0351C9.28711 35.8594 10.6934 35.9473 11.1816 36.2012C11.3965 36.3086 11.9434 36.6016 12.4023 36.8457C13.4961 37.4121 14.3555 37.5684 15.5273 37.4219C16.3574 37.3047 16.5527 37.2266 18.2519 36.3184C18.8574 35.9961 18.916 35.9863 19.9219 35.9863C20.9277 35.9863 20.9863 35.9961 21.5918 36.3184C23.291 37.2266 23.4863 37.3047 24.3164 37.4219C25.4883 37.5684 26.3477 37.4121 27.4414 36.8359C27.9004 36.6016 28.4473 36.3086 28.6621 36.1914C28.9844 36.0156 29.2187 35.9863 30.0879 35.9863C31.0742 35.9863 31.1426 35.9961 31.748 36.3184C33.4473 37.2266 33.6426 37.3047 34.4727 37.4219C35.7617 37.5879 36.4844 37.4316 37.9883 36.6406C39.1699 36.0156 39.2383 35.9961 40.0586 35.957C41.0449 35.9082 41.4941 36.0254 42.5 36.6309C43.8086 37.4023 45.0684 37.6465 46.3574 37.373C47.0996 37.207 47.3047 37.1191 48.8769 36.2988C49.6191 35.9082 49.873 35.7324 49.9414 35.5273C50.0586 35.1855 49.8926 34.8047 49.5508 34.6484C49.2187 34.4922 48.623 34.707 47.4609 35.3613C46.0156 36.1816 44.8926 36.2305 43.5644 35.5176C41.7383 34.5508 41.5137 34.4824 40.2246 34.4726C39.1602 34.4726 38.5644 34.6484 37.3926 35.3125C35.7227 36.2598 34.8047 36.2598 33.0176 35.3223C31.6602 34.6191 31.1719 34.4726 30.0684 34.4726C29.0234 34.4726 28.2617 34.6973 27.2266 35.3027C25.5664 36.2695 24.4434 36.2598 22.6855 35.2539C21.6113 34.6387 21.3672 34.5605 20.2344 34.5019C18.9941 34.4336 18.3691 34.5801 17.2168 35.2246C15.3418 36.2598 14.3457 36.2891 12.6758 35.332C11.5137 34.668 10.8398 34.4726 9.73632 34.4824C9.23828 34.4922 8.67187 34.5312 8.46679 34.5801Z" fill="black"/>
</g>
<defs>
<clipPath id="clip0_143_291">
<rect width="50" height="50" fill="white"/>
</clipPath>
</defs>
</svg>
