<svg width="24" height="24" viewBox="0 0 24 24" fill="none" xmlns="http://www.w3.org/2000/svg">
<path d="M0.857117 21.4286V2.57146C0.857117 2.11681 1.03773 1.68077 1.35922 1.35928C1.68071 1.03779 2.11675 0.857178 2.5714 0.857178H21.4285C21.8832 0.857178 22.3192 1.03779 22.6407 1.35928C22.9622 1.68077 23.1428 2.11681 23.1428 2.57146V21.4286C23.1428 21.8833 22.9622 22.3193 22.6407 22.6408C22.3192 22.9623 21.8832 23.1429 21.4285 23.1429H16.2857V15.0172H17.5028C17.7802 15.0172 18.0462 14.907 18.2423 14.7109C18.4384 14.5148 18.5485 14.2488 18.5485 13.9715V12.6515C18.5485 12.3741 18.4384 12.1081 18.2423 11.912C18.0462 11.7159 17.7802 11.6057 17.5028 11.6057H16.3543V9.99432C16.3543 8.55432 17.0057 8.55432 17.6571 8.55432H18.4971C18.6351 8.56 18.7726 8.53531 18.9 8.48199C19.0274 8.42867 19.1415 8.34802 19.2343 8.24575C19.3339 8.15091 19.4127 8.03642 19.4659 7.90954C19.519 7.78266 19.5452 7.64614 19.5428 7.50861V6.24004C19.5474 6.10044 19.5244 5.96131 19.4752 5.83061C19.426 5.6999 19.3515 5.58018 19.2559 5.47828C19.1604 5.37639 19.0457 5.29432 18.9185 5.23677C18.7912 5.17922 18.6539 5.14732 18.5143 5.14289H16.5428C15.9676 5.12127 15.3945 5.22477 14.8632 5.44625C14.3319 5.66773 13.855 6.0019 13.4654 6.4257C13.0758 6.84949 12.7829 7.3528 12.6068 7.90085C12.4308 8.44891 12.3758 9.02865 12.4457 9.60003V11.6057H11.3485C11.2098 11.6035 11.072 11.6288 10.9431 11.6804C10.8142 11.7319 10.6969 11.8086 10.598 11.9059C10.4991 12.0032 10.4205 12.1193 10.3669 12.2473C10.3133 12.3753 10.2857 12.5127 10.2857 12.6515V13.9715C10.2857 14.1102 10.3133 14.2476 10.3669 14.3756C10.4205 14.5036 10.4991 14.6197 10.598 14.717C10.6969 14.8144 10.8142 14.891 10.9431 14.9426C11.072 14.9941 11.2098 15.0195 11.3485 15.0172H12.4457V23.1429H2.5714C2.11675 23.1429 1.68071 22.9623 1.35922 22.6408C1.03773 22.3193 0.857117 21.8833 0.857117 21.4286Z" stroke="black" stroke-width="1.71429" stroke-linecap="round" stroke-linejoin="round"/>
</svg>
