<svg width="90" height="90" viewBox="0 0 90 90" fill="none" xmlns="http://www.w3.org/2000/svg">
<g clip-path="url(#clip0_143_201)">
<rect width="45" height="45" fill="#348C93"/>
<path d="M54.8437 0.369148C50.4316 0.931648 45.9491 2.47852 42.3456 4.67579L41.3085 5.3086L37.6523 3.19923C35.6308 2.03907 33.6972 1.03712 33.3632 0.966805C32.5898 0.82618 31.6406 1.10743 30.955 1.68751C30.6738 1.91602 29.9179 3.04102 29.2851 4.16602L28.1074 6.24024L25.5409 6.22266L22.9745 6.20509L21.6913 4.0254C20.1972 1.47657 19.6523 0.984383 18.2109 0.984383C17.3671 0.966805 17.0683 1.10743 13.9745 2.88282C8.41985 6.08204 8.22649 6.20509 7.76946 7.04884C7.10149 8.2793 7.27728 9.03516 8.77142 11.584L10.037 13.7461L9.33392 14.8359C8.9472 15.416 8.3847 16.4004 8.08587 17.0156L7.52337 18.1055H5.04485C2.26751 18.1055 1.45892 18.334 0.738214 19.2481C0.052667 20.1094 -0.0176455 20.8652 0.0350889 26.0859L0.0878232 31.0606L0.562433 31.7637C1.31829 32.9063 1.96868 33.1172 4.97454 33.1875L7.5761 33.2578L8.15618 34.4356C8.49017 35.0684 9.03509 36.0176 9.38665 36.5449L10.037 37.4941L8.77142 39.6738C7.45306 41.959 7.20696 42.7852 7.54095 43.8047C7.85735 44.7539 8.61321 45.3164 12.9199 47.8125C16.5234 49.9043 17.0683 50.168 17.9472 50.2383C19.6347 50.3613 20.1445 49.9395 21.832 47.0215L22.957 45.0879H25.5585H28.1601L28.8808 46.4414L29.6191 47.7949L28.4413 48.9902C27.7909 49.6406 27.1054 50.5371 26.912 50.9766C26.5077 51.8555 26.4374 53.2617 26.7363 54.1406L26.9472 54.7031L24.6796 56.9707L22.412 59.2207L21.2343 59.0273C20.2148 58.8516 19.9159 58.8516 19.037 59.1328C18.0527 59.4316 17.789 59.6777 9.43938 67.9922C4.46478 72.9492 0.703058 76.834 0.49212 77.2383C-0.0176455 78.2227 -0.105536 79.5586 0.263604 80.7012C0.544854 81.5625 0.949151 82.0371 4.28899 85.3945C8.52532 89.6836 8.98235 90 10.8456 90C11.6367 90 12.2695 89.877 12.7441 89.666C13.2187 89.4375 16.2773 86.502 22.0956 80.666C30.3925 72.3164 30.7441 71.9473 31.0077 71.0332C31.3417 69.9082 31.3417 69.416 31.0429 68.4668L30.8144 67.7637L33.082 65.4609L35.3671 63.1582L36.3163 63.4219C37.0722 63.6328 37.4941 63.6504 38.1445 63.5273L38.9882 63.3516L39.0585 64.5293C39.1113 65.4785 39.2167 65.8125 39.6034 66.3398C40.4472 67.4473 40.8866 67.5703 43.8749 67.6406L46.5292 67.7109L46.9511 68.6074C47.1796 69.0996 47.7245 70.0137 48.1464 70.6465C48.5683 71.2793 48.9198 71.877 48.9198 71.9824C48.9198 72.0703 48.3573 73.1426 47.6542 74.3379C46.6347 76.1309 46.4062 76.6582 46.4062 77.291C46.4062 78.3105 46.9687 79.3477 47.7773 79.875C49.623 81.0703 55.9863 84.6035 56.5312 84.7617C57.4804 85.0254 58.5702 84.6563 59.2909 83.8652C59.5898 83.5137 60.3281 82.3887 60.8906 81.3867L61.9452 79.541H64.5116H67.078L68.1327 81.3867C68.6952 82.3887 69.4335 83.5137 69.7323 83.8652C70.453 84.6563 71.5429 85.0254 72.4921 84.7617C73.0722 84.5859 80.1913 80.6133 81.4394 79.752C82.0898 79.2949 82.6171 78.2227 82.6171 77.291C82.6171 76.6582 82.3886 76.1309 81.3691 74.3379C80.6659 73.1426 80.1034 72.0703 80.1034 71.9824C80.1034 71.877 80.455 71.2793 80.8769 70.6465C81.2987 70.0137 81.8437 69.0996 82.0722 68.6074L82.4941 67.7109L85.1484 67.6406C88.1366 67.5703 88.5761 67.4473 89.4198 66.3223L89.912 65.6895L89.9648 60.3633C90.0175 55.3887 89.9999 54.9844 89.6659 54.3691C88.9101 52.875 88.1191 52.5762 84.8671 52.5586C83.5487 52.5586 82.4237 52.4883 82.371 52.4004C82.3183 52.3125 82.6171 51.8203 83.039 51.3106C88.8925 44.1563 91.248 34.2246 89.2792 25.0488C88.4882 21.2871 86.537 16.752 84.4804 13.8164C79.998 7.41798 73.6523 3.00587 66.2167 1.12501C62.8241 0.26368 58.0956 -0.0527267 54.8437 0.369148ZM61.6991 3.35743C70.2597 4.41212 77.4667 8.80665 82.1777 15.8203C87.7323 24.082 88.5058 34.6113 84.2519 43.7695C81.7558 49.166 76.6933 54.3516 71.2968 57.0762C64.2655 60.627 56.4609 61.0664 48.7441 58.3418C44.7714 56.9356 41.2734 54.6328 38.0566 51.3106C35.8945 49.0781 34.5234 47.1621 33.1347 44.3848C26.6132 31.5176 30.8671 15.6797 42.9784 7.8047C48.5507 4.1836 55.371 2.56641 61.6991 3.35743ZM19.6699 6.50391C21.3925 9.47462 21.5331 9.58009 23.1679 9.33399C24.6972 9.10548 26.2441 9.0879 27.8261 9.31641C29.5663 9.58009 29.707 9.45704 31.3769 6.52149C32.1503 5.16798 32.8534 4.04298 32.9413 4.04298C33.082 4.04298 38.2148 6.92579 38.4784 7.1543C38.5312 7.18946 37.8105 7.94532 36.8964 8.8418C34.998 10.6524 33.8027 12.0762 32.5195 13.9746L31.6406 15.2754L30.498 14.7481C28.6347 13.9043 27.2636 13.6582 24.9609 13.7637C23.3964 13.8164 22.6406 13.9395 21.6562 14.291C14.8183 16.6816 11.6015 24.3809 14.748 30.8848C16.8222 35.1563 21.1992 37.7754 25.9452 37.582L27.5624 37.5117L28.1074 39.6035C28.4238 40.7637 28.6347 41.7481 28.582 41.7832C28.3183 42.0645 25.5761 42.1875 23.871 42.0293C22.4999 41.8887 21.8847 41.8887 21.5683 42.0293C21.287 42.1523 20.6542 43.084 19.6874 44.7539C18.8964 46.1426 18.1933 47.2852 18.1406 47.2852C18.0878 47.2852 16.33 46.3008 14.2206 45.0879L10.4062 42.8731L11.8827 40.2891C12.6913 38.8652 13.3593 37.5469 13.3593 37.3535C13.3593 36.9844 13.2363 36.7734 11.9882 34.9981C11.2499 33.9434 10.0195 31.5703 10.0195 31.2012C10.0195 31.0781 9.80853 30.8145 9.56243 30.5684C9.12298 30.1641 9.01751 30.1465 6.04681 30.0938L2.98821 30.0234L3.02337 25.6113L3.0761 21.1816L6.15228 21.0938C7.83978 21.041 9.33392 20.9356 9.45696 20.8652C9.56243 20.7774 10.0546 19.8984 10.5292 18.8789C11.0038 17.877 11.8476 16.4356 12.3925 15.6973C13.2187 14.5723 13.3769 14.2383 13.3066 13.7988C13.2538 13.5176 12.5859 12.1816 11.7949 10.8457C10.5468 8.70118 10.4238 8.40235 10.6874 8.24415C13.1132 6.76759 17.8945 4.07813 18.0702 4.09571C18.1933 4.11329 18.914 5.20313 19.6699 6.50391ZM27.7206 16.9453C28.2304 17.0859 29.0038 17.3672 29.4257 17.5606L30.1816 17.9473L29.496 19.5469C27.8964 23.2559 27.0175 27.9141 27.1054 32.0801C27.1581 34.7695 27.2636 34.6289 25.4882 34.6289C23.3788 34.6289 21.1464 33.7324 19.5117 32.2383C18.2988 31.0957 17.5253 29.9707 17.0507 28.5469C15.0644 22.8164 19.371 16.7168 25.4003 16.6992C26.1738 16.6992 27.2284 16.8223 27.7206 16.9453ZM36.1933 53.7715C37.0195 54.6152 38.4081 55.8457 39.2695 56.5137L40.8163 57.709L39.3398 59.1856C38.162 60.3281 37.7402 60.6445 37.3359 60.6445C36.914 60.6445 36.2284 60.0469 33.1874 56.9883C28.7226 52.541 28.8456 52.875 30.955 50.6953L32.3964 49.2363L33.539 50.7481C34.1542 51.5742 35.3495 52.9453 36.1933 53.7715ZM80.332 55.0547C80.6308 55.4414 80.8066 55.459 83.7948 55.5469L86.9237 55.6348L86.9765 60.1523L87.0116 64.6875H83.9706C81.6327 64.6875 80.8593 64.7402 80.578 64.9336C80.3847 65.0742 79.998 65.7598 79.7167 66.4629C79.453 67.166 78.7499 68.4316 78.1523 69.3105C76.6581 71.4902 76.5878 71.6484 76.7812 72.2109C76.8691 72.4746 77.5546 73.7051 78.2753 74.9707C79.2948 76.7109 79.5585 77.3086 79.4003 77.4492C79.1191 77.7129 72.1054 81.7383 71.9296 81.7383C71.8593 81.7383 71.1386 80.6133 70.3476 79.2246C69.3632 77.4844 68.7831 76.6406 68.4667 76.5C68.1327 76.3418 67.6054 76.3418 66.2695 76.5C64.9335 76.6582 64.0898 76.6582 62.7538 76.5C61.4531 76.3418 60.8906 76.3418 60.5566 76.5C60.2753 76.623 59.6425 77.5195 58.6757 79.207C57.8847 80.5957 57.164 81.7383 57.1113 81.7383C56.9355 81.7383 49.8866 77.6953 49.623 77.4492C49.4823 77.3086 49.7988 76.623 50.9062 74.707C52.0312 72.791 52.3652 72.0527 52.3124 71.7012C52.2597 71.4375 51.7851 70.6113 51.2226 69.8555C50.1855 68.3965 49.6406 67.4297 49.1308 66.041C48.6386 64.7227 48.5331 64.6875 45.0527 64.6875H42.0116V62.7188V60.75L42.662 60.082C43.0136 59.7129 43.4179 59.4141 43.5409 59.4141C43.6816 59.4141 44.2441 59.6426 44.8241 59.9414C46.5468 60.8027 48.4628 61.5234 50.6073 62.0684C51.7323 62.3672 52.6816 62.6484 52.7343 62.7188C52.8046 62.7891 53.0156 63.4043 53.2265 64.0723C54.7206 68.8711 59.4491 72.2637 64.6347 72.2461C69.082 72.2285 73.2831 69.5742 75.2519 65.5137C76.2187 63.4922 76.5351 61.8926 76.412 59.5195L76.3241 57.5684L77.2206 56.9004C77.7304 56.5313 78.539 55.8984 79.0136 55.459C79.5058 55.0371 79.9277 54.6856 79.9452 54.668C79.9804 54.668 80.1562 54.8438 80.332 55.0547ZM30.9902 63.3164L28.8281 65.4785L26.7187 63.3691L24.6093 61.2598L26.7538 59.1152L28.9159 56.9531L31.0253 59.0625L33.1347 61.1719L30.9902 63.3164ZM73.4765 60.3457C73.4765 62.4551 72.4394 64.8809 70.8573 66.4629C67.3769 69.9434 61.6816 69.9434 58.1835 66.4453C57.3573 65.6016 56.0741 63.6328 56.0741 63.1758C56.0741 63.0879 57.3925 63.0176 59.0273 63C62.2265 63 63.5624 62.8242 66.5859 62.0332C68.7128 61.4707 70.6113 60.7676 72.2109 59.9414C72.7558 59.6602 73.2655 59.4316 73.3534 59.4141C73.4238 59.4141 73.4765 59.8359 73.4765 60.3457ZM24.5917 65.4609C27.9491 68.8184 28.1952 69.0996 28.1952 69.6973C28.1952 70.2949 27.8613 70.6641 22.1484 76.377L16.0839 82.4414L11.8652 78.2227L7.64642 74.0039L13.7109 67.9395C19.3183 62.332 19.8281 61.875 20.3906 61.875C20.9355 61.875 21.3046 62.1914 24.5917 65.4609ZM12.7617 85.7637C11.4784 87.0645 11.039 87.2578 10.248 86.9063C9.98431 86.8008 8.26165 85.2012 6.4511 83.373C2.32025 79.207 2.37298 79.3477 4.23626 77.4316L5.51946 76.0957L9.73821 80.3145L13.9745 84.5508L12.7617 85.7637Z" fill="black"/>
<path d="M56.2499 6.16992C47.3554 6.97852 39.4277 12.5156 35.6132 20.5664C30.1464 32.1504 33.9081 45.7207 44.5605 52.7695C46.705 54.1934 48.1816 54.9141 50.6073 55.7227C53.5605 56.707 55.4765 57.0234 58.7109 57.0234C61.7167 57.0059 63.4921 56.7598 66.2695 55.8984C72.6327 53.9473 78.3632 49.0781 81.3691 43.084C86.4316 33.0293 84.3573 21.0059 76.2363 13.2539C71.8769 9.08789 66.5859 6.69727 60.5566 6.15234C58.5878 5.97656 58.3593 5.97656 56.2499 6.16992ZM62.4198 9.42188C63.3339 9.58008 64.7929 9.94922 65.6542 10.2305C67.1835 10.7402 70.5234 12.3574 70.8222 12.7266C71.0331 12.9902 61.8925 22.3242 61.4355 22.3242C61.2421 22.3242 59.6952 20.918 57.7441 18.9844C53.9296 15.2051 54.1054 15.293 52.1894 16.1543C49.9218 17.1738 47.6191 17.7715 43.6288 18.3867C43.2948 18.4395 42.9609 18.6504 42.7851 18.8965C42.6445 19.125 42.0116 21.2168 41.414 23.5547C40.7987 25.9277 40.1835 27.9141 40.0253 28.0723C39.7616 28.3359 39.621 28.3359 38.1972 27.9316C37.0722 27.6152 36.6327 27.4219 36.5976 27.1934C36.4921 26.666 37.4237 23.7305 38.2499 21.9902C39.3925 19.582 40.7987 17.5605 42.6269 15.7324C45.914 12.4453 50.1327 10.2305 54.6503 9.42188C56.5312 9.07031 60.3984 9.07031 62.4198 9.42188ZM74.953 16.1895C76.4999 17.8242 77.7831 19.7051 78.7499 21.7266C79.3652 22.9922 80.332 25.6289 80.332 26.0332C80.332 26.1035 80.0507 26.0508 79.7167 25.9102C78.4335 25.3828 76.746 25.7344 75.7616 26.7188C75.4277 27.0703 74.2851 28.8633 73.248 30.6914L71.332 34.0312L70.0839 33.873C68.9589 33.7324 63.58 33.7852 62.9472 33.9609C62.789 33.9961 62.0155 32.8184 60.7499 30.6387C59.6777 28.7754 58.5527 27.0176 58.289 26.7363C57.5683 25.9805 56.4784 25.5938 55.3359 25.6992C54.5097 25.7695 53.7011 26.1738 48.0761 29.4258C44.5956 31.4297 41.5019 33.2754 41.203 33.5039C40.3066 34.1719 39.8495 35.3145 39.9374 36.6328C39.9902 37.6523 40.1308 37.9512 42.0468 41.2559L44.0859 44.7891L43.2597 45.9492C42.8202 46.582 42.4159 47.0918 42.3632 47.0918C42.1874 47.0918 40.4472 44.877 39.6386 43.6289C37.5292 40.3418 36.2812 36.3164 36.1757 32.3965C36.1405 31.5176 36.1757 30.7266 36.246 30.6562C36.3163 30.5859 36.9491 30.709 37.6523 30.9199C38.3554 31.1133 39.2519 31.2891 39.6386 31.2891C40.957 31.2715 42.4862 30.2695 42.9784 29.0918C43.1015 28.793 43.6288 26.9473 44.1386 24.9609C44.6484 22.9746 45.0878 21.3223 45.1054 21.3047C45.123 21.2695 45.914 21.0938 46.8632 20.9004C48.955 20.4961 50.0976 20.1797 51.996 19.4766L53.455 18.9316L56.3027 21.7441C57.8671 23.291 59.4316 24.7148 59.7655 24.8906C60.6445 25.3477 62.2792 25.3125 63.1933 24.8379C63.6152 24.6094 65.83 22.5 68.6249 19.6172C71.2265 16.9453 73.4062 14.7656 73.4765 14.7656C73.5468 14.7656 74.2148 15.3984 74.953 16.1895ZM56.3905 29.127C56.5663 29.4082 57.6034 31.166 58.6933 33.0645C59.7655 34.9629 60.8027 36.6504 60.9784 36.8262C61.3827 37.1777 61.8398 37.1953 63.8085 36.9316C65.7245 36.6855 68.748 36.7031 70.7167 36.9844C71.8945 37.1426 72.3691 37.1426 72.7382 37.002C73.1073 36.8438 73.7402 35.877 75.498 32.8008C77.1679 29.8828 77.8886 28.793 78.1698 28.7227C78.4335 28.6523 78.9433 28.8281 79.7519 29.3027L80.9472 29.9883L80.9296 32.1855C80.8769 37.248 79.0663 42.0469 75.6034 46.1777L74.707 47.25L73.248 46.582C71.2441 45.668 69.873 45.334 67.3945 45.2285C64.9511 45.123 63.1757 45.4043 60.9433 46.2656C58.1659 47.3379 55.0019 49.9219 53.5605 52.3301C52.8925 53.4199 52.8925 53.4199 50.3612 52.4355C48.5155 51.6973 47.2675 51.0293 45.7382 49.9746L44.6484 49.2012L45.2109 48.375C45.5097 47.918 46.1249 47.0918 46.5468 46.5293C47.0741 45.8613 47.3378 45.3516 47.3378 45C47.3378 44.6484 46.582 43.1719 45.1054 40.5879C43.5761 37.916 42.8905 36.5625 42.9257 36.2637C42.9784 35.8945 43.9101 35.2969 49.1308 32.2559C52.5234 30.3047 55.4589 28.6875 55.6698 28.6699C55.8984 28.6523 56.1796 28.8457 56.3905 29.127ZM69.328 48.4277C70.7167 48.7266 72.0702 49.2012 72.0702 49.3945C72.0702 49.623 69.3105 51.3281 67.9394 51.9434C66.1991 52.7344 64.2128 53.3496 62.2441 53.6836C60.4687 53.9824 56.2499 54.0703 56.2499 53.8066C56.2499 53.7188 56.6015 53.2266 57.0234 52.6992C59.9062 49.166 64.7929 47.4609 69.328 48.4277Z" fill="black"/>
</g>
<defs>
<clipPath id="clip0_143_201">
<rect width="90" height="90" fill="white"/>
</clipPath>
</defs>
</svg>
