<svg width="84" height="48" viewBox="0 0 84 48" fill="none" xmlns="http://www.w3.org/2000/svg">
<path d="M45.6731 27.1611V25.3975H58.6382V27.1611H45.6731Z" fill="#66BBC1"/>
<path d="M53.1947 29.3168H51.2153V41.2705H53.1947V29.3168Z" fill="#66BBC1"/>
<path d="M62.9928 27.161V30.1005H61.0134V25.4954H71.5042V27.161H62.9928Z" fill="#97E7EE"/>
<path d="M70.3166 32.3541H61.0134V37.3512H62.9928V33.9218H70.3166V32.3541Z" fill="#97E7EE"/>
<path d="M61.0134 41.2705V39.4088H71.8012V41.2705H61.0134Z" fill="#97E7EE"/>
<path d="M31.8172 41.0744H29.9368V29.8065L31.8172 32.354V41.0744Z" fill="#348C93"/>
<path d="M29.8378 26.5732V25.2994H31.6193L41.2194 37.6451V25.2994H43.2977V41.0745H41.6153L29.8378 26.5732Z" fill="#348C93"/>
<path d="M12.3202 41.0745H10.3408V25.2994H12.3202L16.7739 33.4319L15.8831 35.0976L12.3202 28.9248V41.0745Z" fill="#246367"/>
<path d="M17.5657 38.233L17.2688 37.4491L23.9988 25.4954H26.0771V40.9765H23.9988V29.1207L18.7533 38.233H17.5657Z" fill="#246367"/>
<path d="M42.8921 12.5619H41.8134C41.6232 12.5619 41.4408 12.6369 41.3057 12.7707C41.129 12.9456 41.0548 13.1991 41.1092 13.4416L41.2197 13.9336L41.7377 15.4722C41.7869 15.6185 41.8814 15.7453 42.0074 15.8345L42.0521 15.866C42.3148 16.0518 42.673 16.0222 42.9016 15.7958C42.9672 15.7309 43.0186 15.6529 43.0523 15.567L43.6303 14.0955C43.6725 13.9881 43.7004 13.8755 43.7133 13.7608L43.7413 13.5117C43.7735 13.2248 43.6586 12.941 43.4359 12.7573C43.2828 12.631 43.0905 12.5619 42.8921 12.5619Z" fill="#348C93"/>
<path d="M41.6034 18.6524L41.6183 18.6634C42.1454 19.0548 42.8667 19.0548 43.3937 18.6634C43.5907 18.5172 43.7484 18.3247 43.853 18.1028L48.0574 9.18325C48.3773 8.50459 48.5432 7.76359 48.5432 7.01332C48.5432 6.21632 48.356 5.43047 47.9967 4.71905L47.838 4.40471C47.5194 3.77387 47.0819 3.2105 46.5497 2.74556C45.9717 2.24068 45.2943 1.86262 44.5611 1.6358L44.4099 1.58903C43.1715 1.20589 41.8445 1.21831 40.6135 1.62455L40.5329 1.65115C39.8732 1.86885 39.2527 2.1909 38.6949 2.60504L38.4332 2.79939C37.8544 3.22912 37.3602 3.7622 36.9754 4.37174L36.7588 4.7148C36.3108 5.42446 36.073 6.24652 36.073 7.08576C36.073 7.78705 36.2391 8.47838 36.5576 9.10315L41.1572 18.1245C41.2632 18.3325 41.416 18.5132 41.6034 18.6524Z" stroke="#348C93"/>
<path d="M41.2653 3.66381C41.1956 3.41638 40.937 3.26891 40.698 3.36306C39.8745 3.68745 39.1668 4.25462 38.6743 4.99288C38.0959 5.85997 37.8532 6.90472 37.991 7.93486C38.1289 8.96499 38.6379 9.91119 39.4244 10.5993C40.2109 11.2874 41.222 11.6711 42.2715 11.6798C43.3211 11.6885 44.3385 11.3216 45.1366 10.6467C45.9346 9.97172 46.4596 9.0341 46.6148 8.0064C46.77 6.97869 46.5451 5.93006 45.9814 5.05349C45.5013 4.30684 44.8029 3.72783 43.9845 3.38989C43.7471 3.29183 43.4878 3.43329 43.4144 3.67818C43.3402 3.92576 43.4845 4.18428 43.7214 4.29087C44.3207 4.56059 44.8318 4.99768 45.1889 5.55303C45.6309 6.24047 45.8073 7.06286 45.6856 7.86883C45.5639 8.6748 45.1522 9.41013 44.5263 9.93946C43.9004 10.4688 43.1025 10.7565 42.2794 10.7497C41.4563 10.7429 40.6633 10.4419 40.0465 9.9023C39.4297 9.36266 39.0305 8.62061 38.9224 7.81273C38.8144 7.00485 39.0046 6.1855 39.4583 5.50549C39.8259 4.95444 40.3464 4.52494 40.9526 4.26545C41.1887 4.16436 41.3349 3.91124 41.2653 3.66381Z" fill="#348C93"/>
</svg>
