<svg width="90" height="90" viewBox="0 0 90 90" fill="none" xmlns="http://www.w3.org/2000/svg">
<g clip-path="url(#clip0_143_190)">
<rect width="45" height="45" fill="#348C93"/>
<path d="M41.5723 0.105507C36.6856 0.597694 34.0313 1.12504 30.4981 2.30277C24.6094 4.25394 18.8438 7.80473 14.2031 12.3223C11.9004 14.5723 10.2305 12.4278 28.5293 30.709C44.1738 46.3711 44.209 46.4063 44.9297 46.4063C45.8613 46.4063 46.4063 45.8614 46.4063 44.9297C46.4063 44.3145 46.2305 44.086 44.1738 41.9942L41.959 39.7266L42.6445 39.4278C43.1192 39.2168 43.8047 39.1114 44.9121 39.1114C46.2481 39.1114 46.6348 39.1817 47.4609 39.5684C48.6914 40.1485 49.8516 41.3086 50.4317 42.5391C50.8184 43.3477 50.8887 43.752 50.8887 45C50.8887 46.8106 50.4141 47.9883 49.2012 49.2012C47.9883 50.4141 46.8106 50.8887 45 50.8887C43.752 50.8887 43.3477 50.8184 42.5391 50.4317C40.7461 49.5879 39.3399 47.7422 39.1113 45.8789C38.8652 44.0332 38.5488 43.5938 37.459 43.5938C36.1231 43.5938 35.7012 44.877 36.2988 47.1973C37.3359 51.1348 40.9746 53.9649 45 53.9649C49.8867 53.9649 53.9649 49.8868 53.9649 45C53.9649 40.9747 51.1348 37.336 47.1973 36.2989C45.1055 35.7715 42.5391 36.0704 40.6582 37.0723L39.7617 37.5645L36.5801 34.3829L33.416 31.2012L34.418 30.4805C37.8281 28.002 41.3613 26.9649 45.7031 27.1231C50.5195 27.2989 54.2637 28.9336 57.6738 32.3262C61.0313 35.6836 62.6836 39.4629 62.877 44.1739C63.0527 48.3575 62.1211 51.8028 59.8887 55.1075C58.8164 56.6895 56.6895 58.7989 55.0547 59.8887C53.7363 60.7676 51.1699 62.0508 50.6953 62.0508C50.5899 62.0508 50.2559 61.6641 49.957 61.1895C49.3594 60.2754 48.6914 59.6954 47.4609 59.045C46.793 58.6934 46.4238 58.6231 45 58.6231C43.5762 58.6231 43.207 58.6934 42.5391 59.045C41.3086 59.6954 40.6406 60.2754 40.043 61.1895C39.7442 61.6641 39.4102 62.0508 39.3047 62.0508C39.1992 62.0508 38.4961 61.7872 37.7578 61.4532C34.1016 59.8536 30.7266 56.6719 28.916 53.086C26.8067 48.9375 26.4727 43.5235 28.0371 39.1641C29.1445 36.1055 29.1094 36.2637 28.7051 35.7188C27.8438 34.5586 26.6484 34.8223 25.9453 36.3164C23.7305 40.9747 23.4668 47.1094 25.2246 52.0313C26.8418 56.4961 29.918 60.3106 34.0137 62.877C35.0508 63.5274 37.2832 64.5645 38.3027 64.8809C38.8652 65.0391 39.0586 65.1973 39.1289 65.5489C39.5508 67.4297 40.834 69.0821 42.5039 69.9082C43.3652 70.3301 43.7168 70.4004 45 70.4004C46.2832 70.4004 46.6348 70.3301 47.4961 69.9082C49.166 69.0821 50.4492 67.4297 50.8711 65.5489C50.9414 65.1973 51.1348 65.0391 51.7149 64.8809C55.2481 63.8086 59.3789 60.8028 61.8574 57.4805C65.9004 52.0664 67.0254 44.7715 64.8457 38.2325C62.7539 31.9747 57.3047 26.7364 50.9414 24.8907C48.5859 24.2051 46.8281 24.0293 43.9629 24.1348C39.4102 24.3106 35.877 25.6289 31.8516 28.6524L31.2715 29.0743L28.1074 25.9278L24.9434 22.7637L25.6992 22.0957C27.6504 20.3731 31.4824 18.1055 34.3125 16.9805C40.2715 14.625 47.6895 14.4317 54.2285 16.4707C55.8809 16.9805 59.4141 18.6329 60.8731 19.5821C61.8574 20.2149 61.8926 20.2676 61.752 20.795C61.6817 21.1114 61.6113 21.9551 61.6113 22.6758C61.6289 24.293 62.1387 25.5586 63.2988 26.7012C64.4414 27.8614 65.707 28.3711 67.3242 28.3887C68.0449 28.3887 68.8887 28.3184 69.2051 28.2481C69.7324 28.1075 69.7852 28.1426 70.418 29.127C71.3672 30.586 73.0195 34.1192 73.5293 35.7715C74.2324 38.0215 74.6895 40.4122 74.8652 42.7325C76.0957 59.3086 63.6328 73.7227 47.0742 74.8653C30.5684 76.0254 16.2949 63.5801 15.1172 47.0391C14.6953 40.8692 16.1192 34.9805 19.4238 29.3379C19.8633 28.6172 20.2149 27.8262 20.2149 27.6153C20.2149 27.0528 19.3008 26.1914 18.7031 26.1914C17.0508 26.1914 13.6055 33.3282 12.586 38.8477C11.9356 42.3633 11.9004 46.9864 12.4805 50.4493C13.5 56.4786 16.2422 62.1739 20.4082 66.9024C24.5567 71.6485 30.6211 75.3399 36.7383 76.9043C39.7266 77.6602 41.7305 77.9063 45 77.9063C48.2695 77.9063 50.2734 77.6602 53.2617 76.9043C59.3789 75.3399 65.4434 71.6485 69.5918 66.9024C75.6035 60.0645 78.5391 51.4336 77.8535 42.5391C77.4316 37.0372 75.7793 32.0098 72.9141 27.4922L72.2109 26.3497L72.791 25.1719C73.3359 24.1172 73.3887 23.8711 73.3887 22.5176C73.3887 20.6895 72.9141 19.5118 71.7012 18.2989C70.4883 17.086 69.3106 16.6114 67.4824 16.6114C66.1289 16.6114 65.8828 16.6641 64.8281 17.209L63.6504 17.7891L62.5078 17.086C56.6895 13.4121 49.5527 11.6192 42.8027 12.1289C40.1133 12.3399 39.8496 12.375 37.3711 12.9375C32.4668 14.0801 27.7207 16.4883 23.7656 19.8282L22.834 20.6368L19.6524 17.4551L16.4883 14.2911L17.3145 13.5176C22.9219 8.34965 29.9531 4.90434 37.5293 3.62113C56.127 0.474648 74.3731 9.70316 82.6172 26.4375C84.6563 30.586 85.9043 34.5938 86.5899 39.1114C86.959 41.6075 87.0117 47.3028 86.6953 49.9219C85.8691 56.5137 83.4785 62.9122 79.7871 68.4141C78.5566 70.2598 78.6797 70.1895 77.625 69.6622C76.3242 68.9942 74.3203 68.9063 72.8613 69.4336C71.4199 69.9786 69.9785 71.42 69.4336 72.8614C68.9063 74.3204 68.9941 76.3243 69.6621 77.625C70.1895 78.6797 70.2598 78.5567 68.4668 79.752C62.8945 83.4961 56.5488 85.8516 49.9219 86.6954C47.3027 87.0118 41.6074 86.959 39.1113 86.5899C22.1485 84.0411 8.49025 71.7539 4.30665 55.3008C1.6172 44.6836 3.11134 33.8731 8.63087 24.0645C9.19337 23.045 9.66798 21.9903 9.66798 21.7266C9.66798 20.7071 8.15626 19.9864 7.34767 20.6016C6.96095 20.918 5.81837 22.834 4.72853 24.9961C-0.720688 35.8418 -1.45897 49.0079 2.7422 60.4512C3.51564 62.5606 5.67775 66.9903 6.78517 68.7305C10.3711 74.3731 15.627 79.6289 21.2695 83.2149C23.0098 84.3223 27.4395 86.4844 29.5488 87.2579C31.9219 88.1368 35.5254 89.0508 38.3203 89.4903C41.2031 89.9649 47.3027 90.0528 50.2734 89.6661C57.7442 88.7168 64.8457 85.9746 70.8926 81.7032C72.4922 80.5606 72.6504 80.4903 73.1777 80.6485C74.2852 81 75.0938 81.0528 76.0781 80.8594C79.6992 80.1211 81.7383 76.711 80.6484 73.1778C80.4902 72.6504 80.5606 72.4922 81.7031 70.8926C85.9746 64.8457 88.7168 57.7442 89.666 50.2735C90.0527 47.3028 89.9649 41.2032 89.4902 38.3204C88.7168 33.5039 87.4688 29.5664 85.3418 25.2246C83.0215 20.4961 80.6133 17.1387 76.7461 13.2539C72.8613 9.38676 69.5039 6.97855 64.7754 4.65824C58.5 1.58207 52.8926 0.228554 45.8789 0.105507C43.8926 0.0703506 41.959 0.0703506 41.5723 0.105507ZM68.9063 19.9161C69.8027 20.3907 70.4883 21.4981 70.4883 22.4649C70.4883 23.2559 69.8731 24.5567 69.416 24.6973C69.2402 24.7676 69.082 24.8731 69.082 24.961C69.082 25.1719 68.0801 25.4883 67.4121 25.4883C67.1133 25.4883 66.5156 25.3125 66.0938 25.084C65.1973 24.6094 64.5117 23.502 64.5117 22.5C64.5117 21.4981 65.1973 20.3907 66.0938 19.9161C67.0606 19.4063 67.9395 19.4063 68.9063 19.9161ZM46.4063 61.9278C48.2695 62.9122 48.4981 65.3204 46.8809 66.7442C45.3867 68.045 43.0313 67.4825 42.2578 65.6192C41.4668 63.7559 42.9609 61.5235 45 61.5235C45.3516 61.5235 45.9844 61.6993 46.4063 61.9278ZM76.4473 72.4395C78.1699 73.4063 78.4863 75.709 77.0977 77.0977C76.0078 78.1875 74.4961 78.2403 73.1953 77.2559C72.4043 76.6407 72.0703 75.9551 72.0703 74.918C72.0703 72.7207 74.5137 71.3496 76.4473 72.4395Z" fill="black"/>
</g>
<defs>
<clipPath id="clip0_143_190">
<rect width="90" height="90" fill="white"/>
</clipPath>
</defs>
</svg>
