<svg width="50" height="50" viewBox="0 0 50 50" fill="none" xmlns="http://www.w3.org/2000/svg">
<rect width="25" height="25" fill="#FF8A43"/>
<path d="M30.5176 4.18946C31.875 4.81446 32.2559 6.47462 31.2891 7.60743C31.1133 7.81251 30.8301 8.03712 30.6641 8.10548C30.3907 8.22266 30.3711 8.26173 30.3711 8.75001V9.27735H33.5449H36.7285L36.9824 9.53126C37.1778 9.72657 37.2168 9.83399 37.168 10.0879C37.0606 10.6445 36.8262 10.7422 35.6446 10.7422H34.5801L34.5508 12.3145C34.5215 13.8281 34.5117 13.8867 34.2871 14.0723C33.9746 14.3262 33.5742 14.3067 33.3203 14.0332C33.1153 13.8184 33.1055 13.7109 33.1055 12.2754V10.7422H29.6387H26.1719V14.8926V19.043H26.8067H27.4414V16.5234C27.4414 14.209 27.461 13.9844 27.6465 13.5742C28.0469 12.6953 28.7012 12.2656 29.6387 12.2656C30.3418 12.2656 30.8985 12.5195 31.3282 13.0371C31.7871 13.6035 31.836 13.9258 31.836 16.5918V19.043H32.4707H33.1055V17.9785C33.1055 16.8067 33.2032 16.5723 33.711 16.4453C33.9258 16.3965 34.0332 16.4453 34.2774 16.6797C34.5703 16.9727 34.5703 16.9824 34.5703 18.0469V19.1211L35.0782 19.2969C35.7617 19.5215 36.4258 20.1953 36.709 20.9277C36.9043 21.4649 36.9141 21.6602 36.9141 24.8047V28.125H38.6621C40.2246 28.125 40.4297 28.1445 40.6348 28.3106C40.9473 28.5645 40.9473 29.1504 40.6348 29.4043C40.4102 29.5801 39.8242 29.5899 21.2207 29.5899H2.03127L1.74807 29.8731C1.59182 30.0293 1.46487 30.2637 1.46487 30.3906C1.46487 30.8106 1.75784 31.7578 2.14846 32.5879L2.52932 33.3984H25.0782H47.627L47.9395 32.627C48.252 31.8164 48.5352 30.7813 48.5352 30.3906C48.5352 30.2637 48.4082 30.0293 48.252 29.8731L47.9688 29.5899H45.6543H43.3496L43.1153 29.3457C42.8028 29.043 42.8028 28.6719 43.1153 28.3692L43.3496 28.125H45.7813C48.2032 28.125 48.2032 28.125 48.7207 28.3789C49.7071 28.877 50.0977 29.7266 49.9219 30.9766C49.5899 33.2715 47.9785 36.1035 45.6543 38.4375C42.1485 41.9629 36.9922 44.5117 31.4453 45.459C28.6426 45.9375 28.9746 45.9277 17.8614 45.9668C7.36331 46.0059 7.34377 46.0059 6.72854 45.8008C5.44924 45.3711 4.51174 44.4238 4.15041 43.2129L4.03323 42.8223L2.9883 42.793L1.95315 42.7637V43.4473C1.95315 43.9551 1.91409 44.1699 1.77737 44.3457C1.51369 44.668 1.01565 44.6387 0.712914 44.2969C0.488304 44.0332 0.488304 43.9942 0.488304 42.002C0.488304 40.0879 0.49807 39.9512 0.693382 39.707C0.830101 39.5313 0.986351 39.4531 1.21096 39.4531C1.7676 39.4531 1.89455 39.6387 1.95315 40.4981L2.00198 41.2598L2.94924 41.2891L3.90627 41.3184V39.4434V37.5781L3.32034 36.9336C2.53909 36.0742 1.44534 34.4727 0.927757 33.418C0.34182 32.2266 0.048851 31.25 0.048851 30.4102C0.048851 29.8145 0.0879135 29.6582 0.34182 29.2383C0.527367 28.9453 0.820335 28.6524 1.1133 28.4668L1.59182 28.1738L3.43752 28.1445L5.27346 28.1152V27.0117C5.27346 26.0449 5.30276 25.8692 5.47854 25.6445C5.73244 25.3223 6.25002 25.293 6.54299 25.5859C6.71877 25.7617 6.7383 25.9082 6.7383 26.9531V28.125H21.0938H35.4492V24.8926C35.4492 21.2695 35.4395 21.1817 34.7754 20.7813L34.4239 20.5567H21.0938C7.98831 20.5567 7.75393 20.5567 7.44143 20.752C7.02151 21.0059 6.7383 21.6113 6.7383 22.2461C6.7383 22.8711 6.51369 23.1445 6.01565 23.1445C5.76174 23.1445 5.62502 23.0762 5.46877 22.8711C5.28323 22.6465 5.25393 22.5195 5.29299 21.9238C5.32229 21.5332 5.42971 21.0449 5.53713 20.791C5.93752 19.9024 6.90432 19.2188 7.97854 19.082C8.36916 19.0332 8.49612 18.9844 8.49612 18.8574C8.49612 18.3203 9.68752 7.91993 9.78518 7.5879C9.95119 7.02149 10.6641 6.32813 11.2403 6.16212C11.5528 6.07423 12.2266 6.04493 13.4864 6.07423C15.1367 6.10352 15.3223 6.12305 15.7032 6.32813C16.1914 6.5918 16.6309 7.15821 16.7774 7.73438C16.8457 7.96876 17.1387 10.4199 17.4317 13.1836C17.7246 15.9473 17.9981 18.3984 18.0274 18.6231L18.086 19.043H19.0528H20.0196V16.9629C20.0196 14.6777 20.0879 14.3945 20.6641 13.8477C21.1133 13.4375 21.3965 13.3789 23.1055 13.3789H24.7071V12.0606V10.7422H23.6914C23.1348 10.7422 22.5977 10.7129 22.5098 10.6836C22.2754 10.5859 22.0606 10.0977 22.1289 9.81446C22.2559 9.28712 22.334 9.27735 25.752 9.27735H28.9063V8.75001C28.9063 8.30079 28.877 8.20313 28.711 8.1543C28.3887 8.05665 27.9297 7.6172 27.7246 7.2168C27.2949 6.3672 27.4024 5.43946 28.0078 4.76563C28.6621 4.03321 29.6778 3.79884 30.5176 4.18946ZM29.1114 5.72266C28.7305 6.21095 28.9551 6.77735 29.5606 6.89454C30.2051 7.02149 30.6153 6.18165 30.1563 5.69337C29.8633 5.3711 29.375 5.39063 29.1114 5.72266ZM11.3867 7.74415C11.2305 7.9004 11.1328 8.14454 11.0938 8.50587C11.0547 8.79884 10.9961 9.21876 10.9668 9.44337L10.918 9.86329H13.252H15.586L15.5078 9.10157C15.4102 8.10548 15.3614 7.93946 15.1367 7.71485C14.961 7.53907 14.8047 7.51954 13.2813 7.51954C11.6602 7.51954 11.6016 7.5293 11.3867 7.74415ZM10.7032 12.0313C10.6641 12.4219 10.6153 12.8906 10.5762 13.0566L10.5274 13.3789H13.252H15.9766L15.8594 12.3731C15.791 11.8262 15.7324 11.3672 15.7324 11.3477C15.7227 11.3379 14.6094 11.3281 13.2422 11.3281H10.7715L10.7032 12.0313ZM29.0723 13.9844C28.9258 14.1602 28.9063 14.4434 28.9063 16.6113V19.043H29.6387H30.3711V16.6406C30.3711 15.1367 30.3321 14.1699 30.2637 14.0527C30.0489 13.6426 29.3946 13.6035 29.0723 13.9844ZM21.6016 14.9609C21.5137 15.0488 21.4844 15.6445 21.4844 17.0606V19.043H23.0957H24.7071V16.9434V14.8438H23.2129C22.1778 14.8438 21.6797 14.8828 21.6016 14.9609ZM10.166 16.8652C10.0489 17.9883 9.96096 18.9258 9.96096 18.9649C9.96096 19.0137 11.4649 19.043 13.291 19.043H16.6211L16.5723 18.7207C16.543 18.5547 16.4453 17.7051 16.3574 16.8457C16.2696 15.9863 16.1817 15.1856 16.1524 15.0586L16.1133 14.8438H13.2422H10.3809L10.166 16.8652ZM3.6133 34.9219C3.6133 35.0781 4.80471 36.4258 5.77151 37.3438C7.63674 39.1309 9.40432 40.3516 11.9629 41.6016C14.6387 42.9199 17.4414 43.7793 20.6055 44.2481C21.9239 44.4531 22.4805 44.4824 25 44.4824C28.0274 44.4824 28.9942 44.4043 31.3477 43.9844C37.5684 42.8613 43.0078 39.7852 46.2207 35.5762C46.4746 35.2442 46.6797 34.9512 46.6797 34.9219C46.6797 34.8926 36.9922 34.8633 25.1465 34.8633C13.3008 34.8633 3.6133 34.8926 3.6133 34.9219ZM5.41994 42.2363C5.53713 43.2129 6.32815 44.1895 7.20705 44.4336C7.43166 44.4922 9.043 44.5313 11.377 44.5215H15.1856L14.1602 44.1504C11.2989 43.125 8.40823 41.5039 6.15237 39.6582L5.41994 39.0625L5.39065 40.4102C5.37112 41.1426 5.39065 41.9629 5.41994 42.2363Z" fill="black"/>
<path d="M40.0879 36.5723C40.2246 36.6992 40.332 36.9238 40.332 37.0605C40.332 37.1973 40.2246 37.4219 40.0879 37.5488L39.8535 37.793H37.4512H35.0488L34.8145 37.5488C34.6777 37.4219 34.5703 37.1973 34.5703 37.0605C34.5703 36.9238 34.6777 36.6992 34.8145 36.5723L35.0488 36.3281H37.4512H39.8535L40.0879 36.5723Z" fill="black"/>
<path d="M30.3418 22.3731C31.1035 22.7441 31.543 23.457 31.543 24.3164C31.543 25.8106 30.1855 26.8359 28.7598 26.4258C27.1289 25.9473 26.6504 23.916 27.9004 22.7344C28.5156 22.1484 29.5801 21.9922 30.3418 22.3731ZM28.8184 23.8867C28.5352 24.2383 28.5645 24.4727 28.9062 24.8242C29.1504 25.0586 29.2578 25.1074 29.4727 25.0586C30.3418 24.8535 30.2344 23.6328 29.3555 23.6328C29.1113 23.6328 28.9648 23.7012 28.8184 23.8867Z" fill="black"/>
<path d="M21.9727 22.3242C22.7637 22.666 23.2617 23.4375 23.2617 24.3066C23.2617 25.0098 23.1445 25.2832 22.6465 25.8301C21.3184 27.2656 18.9355 26.3086 18.9453 24.3457C18.9551 23.3984 19.4336 22.6563 20.2832 22.2949C20.7031 22.1289 21.543 22.1387 21.9727 22.3242ZM20.6055 23.8281C20.3613 24.0723 20.3516 24.6191 20.5762 24.834C21.084 25.2832 21.8164 24.9707 21.7969 24.3066C21.7773 23.7012 21.0352 23.3984 20.6055 23.8281Z" fill="black"/>
<path d="M13.6719 22.3145C14.5606 22.7149 15.1368 23.7305 14.9903 24.668C14.8438 25.7031 13.8575 26.5235 12.8028 26.5039C11.1426 26.4746 10.1563 24.8242 10.9083 23.3301C11.2989 22.5684 11.8262 22.2266 12.6758 22.1973C13.1153 22.1778 13.4473 22.2168 13.6719 22.3145ZM12.3047 23.8477C11.7872 24.4043 12.3829 25.293 13.0958 25C13.3399 24.8926 13.5743 24.5508 13.5743 24.2774C13.5743 24.209 13.4864 24.0332 13.3692 23.8867C13.1055 23.5547 12.5977 23.5352 12.3047 23.8477Z" fill="black"/>
</svg>
